<svg xmlns="http://www.w3.org/2000/svg" width="122" height="130" viewBox="0 0 122 130" fill="none">
  <path fill-rule="evenodd" clip-rule="evenodd" d="M85.2858 33.2019C80.9039 41.6225 76.4502 51.8679 72.2059 63.323C62.9424 88.3244 48.5945 104.956 34.9481 115.293C28.1378 120.452 21.4894 124.053 15.715 126.348C10.8421 128.284 6.34241 129.389 2.77767 129.566C2.11081 129.636 1.41886 129.635 0.704834 129.543L1.48828 119.754C1.60607 119.758 1.73086 119.76 1.86253 119.759C1.98525 119.715 2.22549 119.604 2.60302 119.333C3.45108 118.724 4.5661 117.605 5.93876 115.801C8.68003 112.197 11.7468 106.812 15.2277 100.149C16.9772 96.8005 18.817 93.1539 20.7444 89.3337C26.3188 78.2844 32.6256 65.7838 39.5981 54.8414C44.321 47.4295 49.4893 40.4948 55.1537 35.0025C60.8075 29.5205 67.1904 25.2473 74.3513 23.5828C76.1971 23.1537 78.0484 22.9047 79.9054 22.8396C79.9996 22.6751 80.0938 22.5114 80.188 22.3486C83.0665 17.3702 85.9779 13.0463 88.8679 9.6064C91.71 6.22343 94.7694 3.40681 98.0106 1.81182C101.411 0.138447 105.332 -0.301418 109.026 1.79538C112.418 3.72136 114.717 7.30403 116.343 11.4894C119.604 19.881 121.296 33.6855 121.296 53.5609L112.567 56.4413C101.945 41.4628 92.9028 34.9749 85.2858 33.2019ZM74.1234 33.869C70.3896 41.5884 66.698 50.3689 63.1856 59.8485C54.611 82.9907 41.4463 98.1224 29.1976 107.401C25.505 110.198 21.9002 112.46 18.5355 114.246C20.2467 111.339 21.9817 108.133 23.7382 104.771C25.6186 101.172 27.5426 97.3588 29.5234 93.4332C35.0424 82.495 41.0016 70.6846 47.684 60.1976C52.193 53.1213 56.8919 46.8843 61.7986 42.1268C65.9207 38.1299 70.0251 35.3369 74.1234 33.869ZM90.2585 24.3879C97.1866 26.7048 104.197 31.6233 111.3 39.3424C110.67 27.7418 109.242 19.9077 107.378 15.1105C106.103 11.8273 104.904 10.7081 104.335 10.385C104.067 10.2328 103.562 9.99661 102.202 10.6659C100.683 11.4136 98.6473 13.0786 96.191 16.0023C94.3124 18.2383 92.3229 21.0468 90.2585 24.3879ZM1.76341 119.787C1.76351 119.786 1.77015 119.785 1.78303 119.783C1.76975 119.786 1.76331 119.787 1.76341 119.787Z" fill="url(#paint0_linear_104_353)"/>
  <defs>
    <linearGradient id="paint0_linear_104_353" x1="121" y1="0.500034" x2="1" y2="129.5" gradientUnits="userSpaceOnUse">
      <stop stop-color="#1ABB9A"/>
      <stop offset="1" stop-color="#0C5546"/>
    </linearGradient>
  </defs>
</svg>