<svg xmlns="http://www.w3.org/2000/svg" width="94" height="32" viewBox="0 0 94 32" fill="none">
  <g clip-path="url(#clip0_104_303)">
    <path d="M53.4366 7.05545V31.5802H49.2065C49.2065 31.4833 49.142 30.8375 49.0774 30.8375C48.4962 31.2896 47.7696 31.5802 47.0431 31.7093C43.5718 32.3551 40.2459 30.5469 38.922 27.3017C36.9684 22.5388 39.3256 17.1463 44.2984 15.7093C46.0259 15.2088 47.7535 15.4026 49.5133 15.3703V7.03931H53.4205L53.4366 7.05545ZM49.5617 19.0191C47.253 19.0837 44.8312 18.5671 43.1682 20.5529C41.4245 22.6357 41.9412 26.8657 44.6213 27.9313C47.3014 28.9969 49.5617 26.0585 49.5617 26.0585V19.0191Z" fill="#616161"/>
    <path d="M15.8018 15.3865V31.5803H11.5718L11.4426 30.8376C10.8452 31.3058 10.0864 31.5802 9.34372 31.7094C5.43655 32.4198 1.98146 30.0626 0.932013 26.3007C-0.553356 20.9082 2.99861 15.8063 8.53645 15.3704H15.8018V15.3865ZM11.8947 19.0192C9.79579 19.0838 7.45472 18.6156 5.8079 20.2462C3.46683 22.555 3.93504 27.1241 7.40628 28.1736C10.8775 28.9001 11.8785 26.1393 11.8785 26.1393V19.0353L11.8947 19.0192Z" fill="#616161"/>
    <path d="M71.2125 15.3865V31.5803H66.9824L66.8533 30.8376C66.2559 31.3058 65.497 31.5802 64.7544 31.7094C60.8472 32.4198 57.3921 30.0626 56.3427 26.3007C54.8573 20.9082 58.4093 15.8063 63.9471 15.3704H71.2125V15.3865ZM67.3053 19.0192C65.2064 19.0838 62.8654 18.6156 61.2185 20.2462C58.8775 22.555 59.3457 27.1241 62.8169 28.1736C66.2882 28.9001 67.2892 26.1393 67.2892 26.1393V19.0353L67.3053 19.0192Z" fill="#616161"/>
    <path d="M89.0854 31.5802H85.1782V22.6842C85.1137 22.0383 85.0652 21.3764 84.823 20.7629C83.8705 18.4541 80.7544 19.1968 78.7847 19.0676V31.5802H74.8291L74.8614 15.3865H82.2075C86.712 15.5802 88.8917 18.0827 89.0854 22.4904V31.5802Z" fill="#616161"/>
    <path d="M24.6012 15.3864H29.1703V18.8738H24.6012V27.334C24.6012 27.5439 24.7465 28.0605 24.8272 28.2704C25.3762 29.7235 26.797 29.8203 28.1209 29.4651C29.4448 29.1099 29.1703 29.0454 29.5417 28.9808C29.913 28.9162 29.6708 29.223 29.6224 29.3844C28.9604 31.6286 25.36 32.1776 23.4226 31.7093C21.4852 31.2411 20.7263 29.7073 20.6295 27.9475C20.5003 25.5418 20.6295 22.8617 20.6779 20.4238C20.6779 20.004 20.7263 19.3743 20.6779 18.9868C20.6295 18.5994 20.6779 18.89 20.6133 18.8577H17.5941C17.4327 18.8577 17.352 18.6478 17.4488 18.5186C19.6607 16.8718 21.356 14.6438 22.7768 12.3027C23.1158 11.7537 23.5195 10.8496 23.8908 10.3814C24.2622 9.91318 24.3752 9.94547 24.5205 10.333C24.6658 10.7204 24.5851 10.5913 24.5851 10.6074V15.3541L24.6012 15.3864Z" fill="#616161"/>
    <path d="M33.8039 3.43608V0.0275879C31.8591 0.0741169 29.9437 1.03279 28.6374 2.79311C25.7035 6.7265 27.9685 12.366 32.7325 13.203C31.4455 12.362 31.0286 10.6379 32.141 9.44497C32.653 8.89353 33.2374 8.6534 33.8039 8.63828V7.34035V6.04241C33.4558 6.04935 33.0983 6.1004 32.7384 6.19977C30.1067 6.9263 29.3801 10.5751 31.4306 12.448L32.2115 12.9946C32.231 13.0009 32.2505 13.007 32.2701 13.0131H32.2379L32.2115 12.9946C28.8491 11.9135 27.6178 7.58878 29.9775 4.892C30.8676 3.8748 32.3207 3.39801 33.8039 3.43608Z" fill="#616161"/>
    <path d="M35.4669 9.44497C36.5793 10.6379 36.1624 12.362 34.8754 13.203C39.6394 12.366 41.9044 6.7265 38.9704 2.79311C37.6642 1.03279 35.7488 0.0741169 33.8039 0.0275879V3.43608C35.2872 3.39801 36.7403 3.8748 37.6304 4.892C39.9901 7.58878 38.7588 11.9135 35.3964 12.9946L35.37 13.0131H35.3378C35.3574 13.007 35.3769 13.0009 35.3964 12.9946L36.1773 12.448C38.2278 10.5751 37.5012 6.9263 34.8695 6.19977C34.5096 6.1004 34.1521 6.04935 33.8039 6.04241V7.34035V8.63828C34.3705 8.6534 34.9549 8.89353 35.4669 9.44497Z" fill="#616161"/>
    <path d="M35.6767 15.3865H31.7695V31.5802H35.6767V15.3865Z" fill="#616161"/>
    <path d="M91.3621 15.3865H91.7496L92.2985 16.9041C92.3308 16.9203 92.3792 16.8234 92.3954 16.7911C92.5891 16.3713 92.7021 15.8547 92.8959 15.4349L93.2672 15.4026V17.3078H93.0412V15.8385L92.4599 17.2916H92.2016L91.6365 15.8385V17.3078C91.5397 17.3078 91.4266 17.3401 91.3621 17.2432V15.4026V15.3865Z" fill="#616161"/>
    <path d="M91.1683 15.3865V15.6125H90.5547V17.2755H90.2803V15.6125H89.6667V15.3865H91.1683Z" fill="#616161"/>
  </g>
  <defs>
    <clipPath id="clip0_104_303">
      <rect width="92.997" height="32" fill="white" transform="translate(0.463867)"/>
    </clipPath>
  </defs>
</svg>