<svg xmlns="http://www.w3.org/2000/svg" width="112" height="32" viewBox="0 0 112 32" fill="none">
  <g clip-path="url(#clip0_104_315)">
    <path d="M19.5738 30.2911C24.8817 29.3534 29.2657 28.5775 29.316 28.5669L29.4076 28.5474L24.3964 22.5868C21.6403 19.3085 19.3852 16.6135 19.3852 16.5979C19.3852 16.5685 24.5597 2.31922 24.5888 2.26853C24.5985 2.25158 28.1199 8.33113 33.1248 17.0058C37.8105 25.1271 41.6737 31.8232 41.7096 31.8859L41.7749 32L25.849 31.9979L9.92309 31.9959L19.5738 30.2911ZM80.6477 28.8495C78.2235 28.6941 76.8135 27.3137 76.4399 24.7299C76.3405 24.0425 76.3401 24.0247 76.3299 19.5625L76.3201 15.2439H77.393H78.4659L78.4743 19.4211C78.482 23.186 78.4867 23.6274 78.5227 23.8922C78.6688 24.9671 78.9596 25.6899 79.4548 26.2087C79.851 26.6239 80.3149 26.8671 80.957 26.9961C81.26 27.0569 82.1218 27.057 82.398 26.9963C83.049 26.8531 83.5707 26.5698 84.031 26.1097C84.5556 25.5852 84.9437 24.8412 85.1315 23.9998L85.1948 23.7163L85.2019 19.5036L85.2089 15.291H86.3043H87.3996V21.9134V28.5357H86.3156H85.2315V27.485C85.2315 26.7711 85.2237 26.4369 85.2071 26.4424C85.1937 26.4469 85.138 26.5321 85.0834 26.6317C84.7098 27.313 84.0873 27.9361 83.4053 28.3115C82.5878 28.7614 81.7679 28.9214 80.6477 28.8495ZM105.254 28.8388C104.398 28.7745 103.497 28.4803 102.761 28.0247C101.208 27.0646 100.29 25.4819 100.021 23.3038C99.9279 22.5501 99.9167 21.5377 99.9943 20.8972C100.168 19.4662 100.73 18.0614 101.531 17.0585C101.736 16.8014 102.202 16.3357 102.459 16.1305C103.153 15.5762 103.965 15.1886 104.827 15C105.33 14.8901 106.214 14.8385 106.748 14.8879C108.089 15.0122 109.318 15.6434 110.153 16.637C111.001 17.6465 111.468 19.057 111.527 20.7939C111.537 21.0661 111.539 21.5433 111.532 21.8544L111.52 22.42L106.825 22.426L102.129 22.4319V22.6415C102.129 23.2794 102.284 24.0059 102.552 24.6241C102.783 25.1572 103.181 25.7393 103.507 26.021C104.175 26.5986 104.993 26.9443 105.888 27.0275C106.22 27.0583 107.065 27.0259 107.443 26.9678C108.522 26.802 109.548 26.3789 110.376 25.7579C110.473 25.6849 110.567 25.6166 110.583 25.6063C110.607 25.5911 110.613 25.782 110.612 26.5843L110.612 27.5812L110.39 27.7184C109.453 28.2979 108.38 28.67 107.243 28.8092C106.904 28.8508 105.659 28.8693 105.254 28.8388ZM109.341 20.4311C109.341 19.3626 108.89 18.1755 108.253 17.5643C107.798 17.1281 107.249 16.8615 106.595 16.7603C106.286 16.7124 105.634 16.7309 105.308 16.7967C104.619 16.936 104.049 17.2389 103.552 17.7302C103.029 18.2472 102.636 18.8751 102.39 19.5906C102.301 19.8479 102.197 20.2702 102.165 20.5052L102.15 20.6171H105.745H109.341V20.4311ZM45.6439 28.5062C45.6494 28.49 47.2439 24.301 49.1873 19.1973L52.7208 9.91787L53.8561 9.9178L54.9914 9.91773L55.0856 10.1593C55.3735 10.8975 62.1594 28.5155 62.1594 28.5247C62.1594 28.5307 61.6159 28.5356 60.9516 28.5355L59.7438 28.5352L58.7657 25.9313L57.7877 23.3274L53.8497 23.3273L49.9117 23.3273L49.8775 23.4157C49.8586 23.4643 49.4408 24.6359 48.9489 26.0194L48.0545 28.5348L46.8442 28.5352C45.8862 28.5355 45.6359 28.5295 45.6439 28.5062ZM57.0689 21.3402C57.0689 21.3361 56.4107 19.5518 55.6063 17.3751C54.1013 13.3028 54.0171 13.0578 53.8982 12.404C53.8425 12.0975 53.8143 12.0889 53.7812 12.3687C53.7575 12.5686 53.6549 13.0161 53.5758 13.2642C53.5366 13.3874 52.8589 15.2475 52.0698 17.3978C51.2807 19.5481 50.6351 21.3165 50.6351 21.3276C50.6351 21.3386 52.0827 21.3477 53.852 21.3477C55.6213 21.3477 57.0689 21.3443 57.0689 21.3402ZM62.8899 28.1965V27.8574L66.8134 22.4638L70.7369 17.0703L67.1846 17.0585L63.6323 17.0467L63.6261 16.1453L63.62 15.2439H68.7579H73.8957V15.5483V15.8528L69.9718 21.2757C67.8137 24.2584 66.0479 26.7037 66.0479 26.7098C66.0479 26.716 67.7925 26.721 69.9247 26.721H73.8015V27.6283V28.5357H68.3457H62.8899V28.1965ZM91.681 28.5199C91.6723 28.5113 91.6653 25.5206 91.6653 21.874V15.2439H92.7376H93.8099V16.6107C93.8099 17.3625 93.819 17.9776 93.8302 17.9776C93.8414 17.9776 93.8935 17.8546 93.9462 17.7042C94.1872 17.0149 94.6053 16.3709 95.144 15.8591C95.6292 15.398 96.1838 15.1223 96.8382 15.0168C97.022 14.9871 97.1776 14.9815 97.5452 14.991C98.007 15.0031 98.2484 15.0368 98.5292 15.1286L98.6175 15.1575V16.2705V17.3836L98.3642 17.2568C97.9167 17.0327 97.4751 16.9441 96.9443 16.9717C96.5988 16.9896 96.3721 17.034 96.0959 17.1377C95.5276 17.3509 95.0667 17.7274 94.7446 18.2412C94.2783 18.9851 93.9457 19.9413 93.8477 20.8201C93.8301 20.9778 93.8197 22.2623 93.8155 24.7944L93.8094 28.5357H92.7531C92.1721 28.5357 91.6896 28.5286 91.681 28.5199ZM0.460938 28.4734C0.460938 28.465 2.82217 24.3661 5.70813 19.3647L10.9553 10.2712L17.0703 5.1395C20.4336 2.31706 23.1944 0.00433378 23.2054 0.000115936C23.2165 -0.00410107 23.1723 0.107252 23.1071 0.24757C23.042 0.387887 20.054 6.79685 16.4671 14.4897L9.94551 28.4767L5.20322 28.4827C2.59497 28.486 0.460938 28.4818 0.460938 28.4734Z" fill="#616161"/>
  </g>
  <defs>
    <clipPath id="clip0_104_315">
      <rect width="111.075" height="32" fill="white" transform="translate(0.460938)"/>
    </clipPath>
  </defs>
</svg>