<svg width="326" height="382" viewBox="0 0 326 382" fill="none" xmlns="http://www.w3.org/2000/svg">
<g clip-path="url(#clip0_104_362)">
<path d="M8.06519 304.49C8.18656 306.268 8.69807 307.99 9.55829 309.517C10.4185 311.044 11.6033 312.333 13.0166 313.28L120.937 379.86C122.473 380.693 124.171 381.128 125.894 381.128C127.616 381.128 129.314 380.693 130.85 379.86L320.858 262.65C322.354 261.804 323.607 260.538 324.48 258.988C325.354 257.439 325.816 255.664 325.816 253.855C325.816 252.046 325.354 250.271 324.48 248.721C323.607 247.172 322.354 245.906 320.858 245.06L212.956 178.48C211.418 177.652 209.721 177.22 207.999 177.22C206.278 177.22 204.58 177.652 203.043 178.48L13.0354 295.7C11.618 296.644 10.4292 297.932 9.56557 299.459C8.70194 300.987 8.18788 302.71 8.06519 304.49Z" fill="#1ABB9A"/>
<path opacity="0.5" d="M325.828 253.85C325.707 255.629 325.196 257.353 324.336 258.882C323.475 260.411 322.29 261.702 320.876 262.65L130.868 379.86C129.345 380.724 127.641 381.161 125.917 381.13V369.66C127.641 369.691 129.345 369.254 130.868 368.39L320.876 251.18C323.272 249.7 323.572 247.42 321.812 245.74C322.973 246.718 323.93 247.945 324.622 249.342C325.313 250.738 325.724 252.274 325.828 253.85Z" fill="black"/>
<path opacity="0.3" d="M13.0165 301.81L120.937 368.39C122.473 369.223 124.171 369.658 125.893 369.658C127.616 369.658 129.314 369.223 130.85 368.39L320.858 251.18C323.6 249.49 323.6 246.75 320.858 245.06L212.955 178.48C211.418 177.652 209.721 177.22 207.999 177.22C206.278 177.22 204.58 177.652 203.043 178.48L13.0352 295.7C10.2834 297.38 10.2834 300.12 13.0165 301.81Z" fill="black"/>
<path opacity="0.7" d="M125.889 369.66V381.12C124.164 381.163 122.459 380.729 120.937 379.86L13.0166 313.28C11.5657 312.462 10.3435 311.248 9.4745 309.762C8.60548 308.275 8.12061 306.569 8.06925 304.817C8.01789 303.065 8.40187 301.33 9.18211 299.789C9.96235 298.247 11.111 296.953 12.5111 296.04C10.2928 297.74 10.4613 300.23 13.0166 301.81L120.937 368.39C122.458 369.262 124.163 369.7 125.889 369.66Z" fill="black"/>
<path d="M3.46003 295.88C0.895388 294.3 1.03579 291.63 1.03579 288.25V129C1.12907 127.163 1.62595 125.376 2.48619 123.783C3.34643 122.19 4.54583 120.836 5.98723 119.83L195.995 2.62002C197.469 1.78322 199.107 1.32988 200.776 1.29686C202.444 1.26385 204.097 1.65209 205.599 2.43002C208.163 4.01002 208.032 6.69002 208.032 10.06V169.31C207.941 171.148 207.444 172.937 206.582 174.531C205.719 176.125 204.517 177.478 203.071 178.48L13.0634 295.7C11.5881 296.533 9.95013 296.983 8.28181 297.015C6.6135 297.046 4.96171 296.657 3.46003 295.88Z" fill="#1ABB9A"/>
<path opacity="0.3" d="M208.004 10.06C208.004 6.69001 205.776 5.32001 203.043 7.00001L13.0353 124.22C11.5648 125.208 10.3588 126.586 9.53465 128.22L2.4585 123.82C3.29172 122.19 4.49966 120.813 5.9685 119.82L195.977 2.62001C197.452 1.78311 199.091 1.32975 200.762 1.29674C202.432 1.26373 204.086 1.65199 205.589 2.43001C208.135 4.00001 208.004 6.69001 208.004 10.06Z" fill="black"/>
<path opacity="0.5" d="M8.06519 133.39V292.64C8.06519 296.01 10.2835 297.38 13.0166 295.7L203.025 178.48C204.47 177.478 205.673 176.125 206.535 174.531C207.397 172.937 207.894 171.148 207.985 169.31V10.06C207.985 6.69001 205.767 5.32001 203.025 7.01001L13.0166 124.22C11.5752 125.226 10.3758 126.58 9.5156 128.173C8.65536 129.766 8.15847 131.553 8.06519 133.39Z" fill="black"/>
<path opacity="0.7" d="M12.4362 296C11.015 296.685 9.47026 297.029 7.91115 297.006C6.35205 296.984 4.81657 296.596 3.41315 295.87C0.848513 294.29 0.988916 291.62 0.988916 288.24V129C1.04636 127.159 1.54596 125.365 2.43972 123.79L9.51588 128.16C8.62861 129.734 8.12945 131.524 8.06507 133.36V292.64C8.06507 295.77 10.012 297.18 12.4362 296Z" fill="black"/>
<path d="M15.684 130.33L198.897 17.3301C200.535 16.3301 201.864 17.1401 201.864 19.1601V158.16C201.81 159.262 201.513 160.334 200.997 161.29C200.482 162.246 199.762 163.058 198.897 163.66L15.684 276.66C14.046 277.66 12.7075 276.85 12.7075 274.82V135.82C12.7639 134.719 13.0629 133.648 13.5802 132.694C14.0974 131.74 14.8182 130.93 15.684 130.33Z" fill="#FAFAFA"/>
<path opacity="0.3" d="M26.7383 296L203.118 187.2C203.888 186.786 204.737 186.57 205.599 186.57C206.46 186.57 207.31 186.786 208.079 187.2L211.009 188.92C212.385 189.77 212.385 191.14 211.009 191.98L34.6007 300.77C33.8343 301.189 32.9858 301.407 32.125 301.407C31.2642 301.407 30.4157 301.189 29.6493 300.77L26.7383 299.06C25.3717 298.22 25.3717 296.85 26.7383 296Z" fill="#263238"/>
<path opacity="0.3" d="M40.5723 304.8L216.952 196C217.636 195.582 218.401 195.339 219.187 195.293C219.974 195.246 220.76 195.395 221.482 195.73L267.412 224.05C268.544 224.75 268.348 226 266.981 226.85L90.7887 335.5C90.1026 335.916 89.3359 336.156 88.5485 336.203C87.7611 336.25 86.9741 336.102 86.2491 335.77L40.1511 307.58C39.0279 306.89 39.2057 305.64 40.5723 304.8Z" fill="#263238"/>
<path d="M193.412 241.7L198.934 238.29C199.168 238.14 199.187 237.92 198.981 237.79L193.693 234.54C193.567 234.476 193.429 234.443 193.29 234.443C193.151 234.443 193.013 234.476 192.888 234.54L187.365 237.95C187.131 238.1 187.112 238.32 187.318 238.45L192.607 241.7C192.733 241.764 192.87 241.797 193.009 241.797C193.149 241.797 193.286 241.764 193.412 241.7ZM185.343 229.91L179.821 233.32C179.587 233.46 179.568 233.68 179.774 233.81L185.053 237.07C185.179 237.134 185.317 237.167 185.456 237.167C185.595 237.167 185.733 237.134 185.858 237.07L191.381 233.66C191.615 233.52 191.643 233.3 191.427 233.17L186.148 229.91C186.024 229.842 185.886 229.806 185.746 229.806C185.606 229.806 185.468 229.842 185.343 229.91ZM167.503 240.91L158.143 246.68C157.909 246.82 157.891 247.05 158.143 247.17L163.432 250.43C163.556 250.498 163.694 250.534 163.834 250.534C163.974 250.534 164.112 250.498 164.237 250.43L173.597 244.67C173.831 244.52 173.849 244.3 173.643 244.17L168.364 240.91C168.231 240.836 168.084 240.798 167.934 240.798C167.784 240.798 167.636 240.836 167.503 240.91ZM177.275 234.91L171.753 238.31C171.519 238.46 171.491 238.68 171.706 238.81L176.985 242.07C177.111 242.134 177.248 242.167 177.387 242.167C177.527 242.167 177.664 242.134 177.79 242.07L183.312 238.66C183.546 238.52 183.565 238.3 183.359 238.17L178.071 234.91C177.949 234.839 177.814 234.799 177.675 234.796C177.537 234.792 177.399 234.825 177.275 234.89V234.91ZM155.607 248.27L150.084 251.68C149.85 251.82 149.832 252.04 150.084 252.17L155.363 255.43C155.488 255.498 155.626 255.534 155.766 255.534C155.906 255.534 156.044 255.498 156.168 255.43L161.644 252C161.878 251.85 161.897 251.63 161.691 251.5L156.412 248.24C156.285 248.178 156.147 248.146 156.008 248.148C155.869 248.15 155.732 248.184 155.607 248.25V248.27ZM147.538 253.27L142.016 256.68C141.782 256.82 141.754 257.04 142.016 257.17L147.295 260.43C147.42 260.498 147.558 260.534 147.698 260.534C147.838 260.534 147.976 260.498 148.1 260.43L153.622 257.02C153.856 256.88 153.875 256.66 153.669 256.53L148.381 253.27C148.253 253.193 148.11 253.15 147.964 253.143C147.818 253.136 147.672 253.166 147.538 253.23V253.27ZM168.243 266.57L173.765 263.16C173.999 263.02 174.027 262.79 173.812 262.67L168.533 259.41C168.408 259.342 168.27 259.306 168.13 259.306C167.99 259.306 167.852 259.342 167.728 259.41L162.206 262.81C161.972 262.96 161.953 263.18 162.159 263.31L167.447 266.57C167.574 266.626 167.712 266.652 167.849 266.645C167.987 266.638 168.121 266.599 168.243 266.53V266.57ZM160.174 271.57L165.697 268.16C165.931 268.02 165.95 267.79 165.744 267.67L160.465 264.41C160.34 264.342 160.202 264.306 160.062 264.306C159.922 264.306 159.784 264.342 159.66 264.41L154.137 267.81C153.903 267.96 153.875 268.18 154.09 268.31L159.369 271.57C159.499 271.625 159.639 271.648 159.778 271.637C159.918 271.627 160.053 271.583 160.174 271.51V271.57ZM152.106 276.57L157.628 273.16C157.862 273.01 157.881 272.79 157.675 272.66L152.387 269.4C152.261 269.336 152.124 269.303 151.984 269.303C151.845 269.303 151.708 269.336 151.582 269.4L146.06 272.81C145.826 272.96 145.807 273.18 146.013 273.31L151.301 276.56C151.432 276.613 151.572 276.635 151.711 276.622C151.85 276.61 151.985 276.565 152.106 276.49V276.57ZM144.028 281.57L149.551 278.17C149.785 278.02 149.813 277.8 149.598 277.67L144.319 274.41C144.193 274.346 144.055 274.313 143.916 274.313C143.777 274.313 143.639 274.346 143.514 274.41L137.991 277.82C137.757 277.96 137.738 278.19 137.991 278.31L143.28 281.57C143.404 281.614 143.536 281.626 143.666 281.607C143.796 281.588 143.92 281.538 144.028 281.46V281.57ZM185.334 246.78L190.856 243.38C191.09 243.23 191.119 243.01 190.903 242.88L185.624 239.62C185.499 239.556 185.361 239.523 185.222 239.523C185.083 239.523 184.945 239.556 184.819 239.62L179.297 243.03C179.063 243.17 179.044 243.4 179.25 243.52L184.529 246.78C184.662 246.832 184.804 246.849 184.944 246.83C185.084 246.811 185.218 246.756 185.334 246.67V246.78ZM176.32 261.66L188.638 254.06C188.872 253.92 188.891 253.69 188.685 253.57L175.852 245.65C175.727 245.586 175.589 245.553 175.45 245.553C175.311 245.553 175.173 245.586 175.047 245.65L168.673 249.58C168.439 249.73 168.421 249.95 168.626 250.08L175.422 254.27C175.628 254.39 175.609 254.62 175.375 254.76L170.274 257.9C170.04 258.05 170.021 258.27 170.227 258.4L175.515 261.66C175.649 261.707 175.79 261.722 175.93 261.703C176.069 261.684 176.203 261.632 176.32 261.55V261.66ZM139.461 258.32L133.938 261.73C133.704 261.87 133.686 262.09 133.892 262.22L139.18 265.48C139.304 265.542 139.44 265.575 139.578 265.575C139.715 265.575 139.851 265.542 139.976 265.48L145.507 262.07C145.741 261.93 145.76 261.71 145.554 261.58L140.266 258.32C140.15 258.234 140.016 258.179 139.876 258.16C139.736 258.141 139.593 258.158 139.461 258.21V258.32ZM131.392 263.32L125.87 266.72C125.636 266.87 125.617 267.09 125.823 267.22L131.102 270.48C131.228 270.544 131.365 270.577 131.505 270.577C131.644 270.577 131.781 270.544 131.907 270.48L137.43 267.07C137.664 266.93 137.692 266.71 137.476 266.58L132.197 263.32C132.083 263.231 131.95 263.172 131.81 263.15C131.67 263.127 131.526 263.141 131.392 263.19V263.32ZM86.7639 316.34C86.8884 316.408 87.0264 316.444 87.1664 316.444C87.3064 316.444 87.4444 316.408 87.5689 316.34L93.0913 312.94C93.3253 312.79 93.344 312.57 93.1381 312.44L87.859 309.18C87.7333 309.116 87.5958 309.083 87.4566 309.083C87.3173 309.083 87.1798 309.116 87.0541 309.18L81.5317 312.59C81.2977 312.73 81.279 312.96 81.4849 313.08L86.7639 316.34ZM66.8178 303L61.2954 306.4C61.0614 306.55 61.0426 306.77 61.2954 306.9L66.5838 310.16C66.7095 310.224 66.847 310.257 66.9862 310.257C67.1255 310.257 67.263 310.224 67.3887 310.16L72.9111 306.75C73.1451 306.61 73.1638 306.38 72.9111 306.26L67.6227 303C67.4982 302.932 67.3602 302.896 67.2202 302.896C67.0802 302.896 66.9423 302.932 66.8178 303ZM77.0576 313C77.1833 313.064 77.3208 313.097 77.4601 313.097C77.5993 313.097 77.7369 313.064 77.8626 313L83.385 309.59C83.619 309.45 83.6377 309.23 83.4318 309.1L78.1434 305.84C78.0205 305.772 77.8841 305.736 77.7456 305.736C77.6071 305.736 77.4706 305.772 77.3478 305.84L71.8254 309.24C71.582 309.39 71.5633 309.61 71.7692 309.74L77.0576 313ZM99.325 318.35L104.847 314.94C105.081 314.8 105.1 314.58 104.894 314.45L99.6152 311.19C99.4907 311.122 99.3527 311.086 99.2127 311.086C99.0727 311.086 98.9347 311.122 98.8102 311.19L93.2878 314.6C93.0538 314.74 93.0351 314.96 93.241 315.09L98.5201 318.35C98.6458 318.414 98.7833 318.447 98.9226 318.447C99.0618 318.447 99.1993 318.414 99.325 318.35ZM90.4518 323.35C90.5775 323.414 90.715 323.447 90.8542 323.447C90.9935 323.447 91.131 323.414 91.2567 323.35L96.7791 319.94C97.0131 319.8 97.0318 319.58 96.8259 319.45L91.5375 316.19C91.4147 316.122 91.2782 316.086 91.1397 316.086C91.0012 316.086 90.8648 316.122 90.7419 316.19L85.2195 319.59C84.9855 319.74 84.9575 319.96 85.2195 320.09L90.4518 323.35ZM74.8955 298L69.373 301.4C69.139 301.55 69.111 301.77 69.373 301.9L74.5959 305.2C74.7217 305.264 74.8591 305.297 74.9984 305.297C75.1377 305.297 75.2752 305.264 75.4009 305.2L80.9233 301.79C81.1573 301.65 81.176 301.43 80.9233 301.3L75.691 298C75.5682 297.932 75.4317 297.896 75.2932 297.896C75.1547 297.896 75.0183 297.932 74.8955 298ZM115.246 273.1L109.724 276.51C109.49 276.66 109.471 276.88 109.677 277.01L114.966 280.26C115.089 280.327 115.225 280.362 115.363 280.362C115.502 280.362 115.638 280.327 115.761 280.26L121.293 276.85C121.527 276.7 121.546 276.48 121.34 276.35L116.051 273.1C115.923 273.042 115.784 273.016 115.645 273.023C115.505 273.03 115.369 273.07 115.246 273.14V273.1ZM82.9638 293.02L77.4414 296.43C77.2074 296.57 77.1886 296.79 77.4414 296.92L82.7204 300.18C82.8449 300.248 82.9829 300.284 83.1229 300.284C83.2629 300.284 83.4009 300.248 83.5254 300.18L89.0478 296.77C89.2818 296.63 89.3099 296.41 89.0946 296.28L83.7687 293C83.6398 292.941 83.4995 292.915 83.3594 292.926C83.2194 292.936 83.0837 292.982 82.9638 293.06V293.02ZM123.324 268.13L117.802 271.53C117.568 271.68 117.54 271.9 117.802 272.03L123.081 275.29C123.206 275.354 123.344 275.387 123.483 275.387C123.622 275.387 123.76 275.354 123.886 275.29L129.408 271.88C129.642 271.74 129.661 271.51 129.455 271.39L124.166 268.13C124.035 268.059 123.888 268.025 123.74 268.032C123.593 268.039 123.45 268.087 123.324 268.17V268.13ZM107.178 278.08L101.656 281.49C101.422 281.63 101.403 281.86 101.656 281.98L106.935 285.24C107.059 285.308 107.197 285.344 107.337 285.344C107.477 285.344 107.615 285.308 107.74 285.24L113.262 281.84C113.496 281.69 113.524 281.47 113.309 281.34L108.03 278.08C107.895 278.014 107.748 277.983 107.599 277.99C107.451 277.997 107.307 278.042 107.178 278.12V278.08ZM99.1098 283.08L93.5874 286.49C93.3534 286.63 93.3253 286.85 93.5874 286.98L98.8664 290.24C98.9909 290.308 99.1289 290.344 99.2689 290.344C99.4089 290.344 99.5469 290.308 99.6714 290.24L105.194 286.84C105.428 286.69 105.446 286.47 105.241 286.34L99.9615 283.08C99.8282 283.011 99.6815 282.977 99.5334 282.98C99.3853 282.984 99.2401 283.025 99.1098 283.1V283.08ZM91.0321 288.08L85.5097 291.49C85.2757 291.63 85.257 291.85 85.5097 291.98L90.7981 295.24C90.9226 295.308 91.0606 295.344 91.2006 295.344C91.3406 295.344 91.4785 295.308 91.603 295.24L97.1255 291.84C97.3595 291.69 97.3782 291.47 97.1255 291.34L91.837 288.08C91.7113 288.016 91.5738 287.983 91.4346 287.983C91.2953 287.983 91.1578 288.016 91.0321 288.08ZM127.892 291.42L133.414 288.01C133.648 287.87 133.667 287.65 133.414 287.52L128.126 284.26C128 284.196 127.863 284.163 127.723 284.163C127.584 284.163 127.447 284.196 127.321 284.26L121.798 287.67C121.564 287.81 121.546 288.03 121.798 288.16L127.087 291.42C127.211 291.488 127.349 291.524 127.489 291.524C127.629 291.524 127.767 291.488 127.892 291.42ZM203.184 218.9L197.661 222.31C197.427 222.45 197.408 222.68 197.614 222.8L202.903 226.06C203.026 226.128 203.162 226.164 203.301 226.164C203.439 226.164 203.576 226.128 203.698 226.06L209.221 222.66C209.455 222.51 209.483 222.29 209.268 222.16L203.989 218.9C203.863 218.836 203.725 218.803 203.586 218.803C203.447 218.803 203.309 218.836 203.184 218.9ZM193.412 224.9L187.889 228.31C187.655 228.45 187.637 228.67 187.843 228.8L193.131 232.06C193.254 232.128 193.39 232.164 193.529 232.164C193.667 232.164 193.804 232.128 193.927 232.06L199.458 228.65C199.692 228.51 199.711 228.29 199.505 228.16L194.217 224.9C194.089 224.841 193.95 224.813 193.811 224.818C193.672 224.823 193.535 224.861 193.412 224.93V224.9ZM211.261 213.9L205.739 217.3C205.505 217.45 205.477 217.67 205.692 217.8L210.971 221.05C211.097 221.114 211.234 221.147 211.374 221.147C211.513 221.147 211.65 221.114 211.776 221.05L217.298 217.64C217.532 217.49 217.551 217.27 217.345 217.14L212.057 213.89C211.93 213.826 211.79 213.796 211.65 213.803C211.509 213.81 211.373 213.854 211.252 213.93L211.261 213.9ZM166.642 258.2L172.165 254.8C172.399 254.65 172.427 254.43 172.211 254.3L166.932 251C166.807 250.936 166.669 250.903 166.53 250.903C166.391 250.903 166.253 250.936 166.127 251L160.605 254.41C160.371 254.55 160.352 254.78 160.558 254.9L165.847 258.16C165.966 258.235 166.101 258.277 166.24 258.284C166.378 258.291 166.516 258.262 166.642 258.2ZM220.135 208.92C220.01 208.852 219.872 208.816 219.732 208.816C219.592 208.816 219.454 208.852 219.33 208.92L213.807 212.32C213.573 212.47 213.554 212.69 213.76 212.82L219.039 216.08C219.165 216.144 219.303 216.177 219.442 216.177C219.581 216.177 219.719 216.144 219.844 216.08L225.367 212.67C225.601 212.53 225.62 212.3 225.414 212.18L220.135 208.92ZM135.96 286.44L141.482 283.04C141.716 282.89 141.735 282.67 141.529 282.54L136.25 279.28C136.125 279.216 135.987 279.183 135.848 279.183C135.709 279.183 135.571 279.216 135.445 279.28L129.923 282.69C129.689 282.83 129.661 283.05 129.876 283.18L135.155 286.44C135.28 286.508 135.418 286.544 135.558 286.544C135.698 286.544 135.836 286.508 135.96 286.44ZM234.942 225.39L240.464 221.98C240.698 221.84 240.717 221.62 240.511 221.49L235.223 218.23C235.1 218.162 234.964 218.126 234.825 218.126C234.687 218.126 234.55 218.162 234.427 218.23L228.905 221.63C228.671 221.78 228.643 222 228.858 222.13L234.137 225.39C234.263 225.454 234.4 225.487 234.54 225.487C234.679 225.487 234.816 225.454 234.942 225.39ZM219.32 225.71L224.843 222.3C225.077 222.16 225.095 221.94 224.889 221.81L219.61 218.55C219.485 218.486 219.347 218.453 219.208 218.453C219.069 218.453 218.931 218.486 218.805 218.55L213.283 221.96C213.049 222.1 213.03 222.32 213.236 222.45L218.515 225.71C218.64 225.778 218.778 225.814 218.918 225.814C219.058 225.814 219.196 225.778 219.32 225.71ZM227.679 213.57C227.553 213.506 227.415 213.473 227.276 213.473C227.137 213.473 226.999 213.506 226.874 213.57L221.351 216.98C221.117 217.12 221.099 217.34 221.305 217.47L226.593 220.73C226.716 220.798 226.852 220.834 226.991 220.834C227.129 220.834 227.266 220.798 227.389 220.73L232.911 217.33C233.145 217.18 233.173 216.96 232.958 216.83L227.679 213.57ZM229.382 212.52L242.205 220.44C242.331 220.504 242.469 220.537 242.608 220.537C242.747 220.537 242.885 220.504 243.01 220.44L248.533 217.03C248.767 216.89 248.786 216.67 248.58 216.54L235.747 208.62C235.623 208.558 235.487 208.525 235.349 208.525C235.212 208.525 235.076 208.558 234.951 208.62L229.429 212.03C229.195 212.17 229.167 212.4 229.382 212.52ZM210.737 223.52L205.215 226.93C204.981 227.07 204.953 227.29 205.168 227.42L210.447 230.68C210.573 230.744 210.71 230.777 210.849 230.777C210.989 230.777 211.126 230.744 211.252 230.68L216.774 227.27C217.008 227.13 217.027 226.91 216.821 226.78L211.533 223.52C211.407 223.458 211.269 223.429 211.13 223.436C210.992 223.443 210.857 223.485 210.737 223.56V223.52ZM149.991 261L144.459 264.41C144.225 264.55 144.206 264.77 144.412 264.9L149.701 268.16C149.825 268.228 149.963 268.264 150.103 268.264C150.243 268.264 150.381 268.228 150.506 268.16L156.028 264.75C156.262 264.61 156.281 264.39 156.075 264.26L150.786 261C150.662 260.938 150.526 260.905 150.389 260.905C150.251 260.905 150.115 260.938 149.991 261ZM226.069 230.37C226.193 230.432 226.329 230.465 226.467 230.465C226.604 230.465 226.74 230.432 226.864 230.37L232.396 226.96C232.63 226.82 232.649 226.59 232.443 226.47L227.164 223.21C227.039 223.142 226.901 223.106 226.761 223.106C226.621 223.106 226.483 223.142 226.359 223.21L220.837 226.61C220.603 226.76 220.584 226.98 220.79 227.11L226.069 230.37ZM158.059 256.02L152.537 259.43C152.303 259.57 152.275 259.79 152.537 259.92L157.816 263.18C157.94 263.248 158.078 263.284 158.218 263.284C158.358 263.284 158.496 263.248 158.621 263.18L164.143 259.78C164.377 259.63 164.396 259.41 164.19 259.28L158.836 256C158.711 255.948 158.576 255.926 158.442 255.935C158.308 255.943 158.178 255.983 158.059 256.05V256.02ZM94.8042 311.33C94.9275 311.397 95.0637 311.432 95.202 311.432C95.3402 311.432 95.4765 311.397 95.5998 311.33L101.122 307.92C101.356 307.77 101.384 307.55 101.122 307.42L95.8431 304.17C95.7174 304.106 95.5799 304.073 95.4407 304.073C95.3014 304.073 95.1639 304.106 95.0382 304.17L89.5158 307.58C89.2818 307.73 89.263 307.95 89.469 308.08L94.8042 311.33ZM85.4442 300.83L79.9218 304.24C79.6878 304.38 79.6691 304.6 79.9218 304.73L85.2008 307.99C85.3265 308.054 85.464 308.087 85.6033 308.087C85.7425 308.087 85.88 308.054 86.0058 307.99L91.5282 304.58C91.7622 304.44 91.7809 304.22 91.575 304.09L86.2959 300.83C86.1597 300.752 86.0067 300.714 85.8523 300.719C85.6978 300.724 85.5474 300.773 85.4161 300.86L85.4442 300.83ZM103.706 306.33L109.228 303C109.462 302.86 109.481 302.63 109.275 302.51L103.986 299.25C103.862 299.182 103.724 299.146 103.584 299.146C103.444 299.146 103.306 299.182 103.181 299.25L97.659 302.65C97.425 302.8 97.4062 303.02 97.6122 303.15L102.901 306.41C103.026 306.462 103.16 306.484 103.294 306.475C103.428 306.467 103.559 306.427 103.677 306.36L103.706 306.33ZM111.774 301.33L117.296 297.92C117.53 297.78 117.549 297.56 117.296 297.43L112.036 294.22C111.913 294.152 111.777 294.116 111.638 294.116C111.5 294.116 111.363 294.152 111.24 294.22L105.718 297.62C105.484 297.77 105.456 297.99 105.671 298.12L110.95 301.38C111.075 301.442 111.21 301.475 111.348 301.475C111.485 301.475 111.621 301.442 111.746 301.38L111.774 301.33ZM119.842 296.33L125.365 292.92C125.599 292.78 125.627 292.56 125.365 292.43L120.086 289.17C119.961 289.102 119.823 289.066 119.683 289.066C119.543 289.066 119.405 289.102 119.281 289.17L113.758 292.58C113.524 292.72 113.505 292.94 113.711 293.07L119 296.33C119.122 296.407 119.258 296.453 119.399 296.465C119.54 296.477 119.682 296.455 119.814 296.4L119.842 296.33ZM93.5125 295.81L87.9901 299.22C87.7561 299.36 87.7374 299.58 87.9433 299.71L93.2317 302.97C93.3545 303.038 93.491 303.074 93.6295 303.074C93.768 303.074 93.9044 303.038 94.0273 302.97L99.5497 299.57C99.7837 299.42 99.8118 299.2 99.5965 299.07L94.2519 295.85C94.1293 295.797 93.9975 295.772 93.8652 295.777C93.7328 295.782 93.6031 295.817 93.4844 295.88L93.5125 295.81ZM101.59 290.81L96.0678 294.22C95.8244 294.36 95.8057 294.58 96.0116 294.71L101.3 297.97C101.425 298.038 101.562 298.074 101.702 298.074C101.842 298.074 101.98 298.038 102.105 297.97L107.627 294.57C107.861 294.42 107.88 294.2 107.674 294.07L102.386 290.81C102.251 290.756 102.107 290.737 101.964 290.752C101.821 290.768 101.684 290.818 101.562 290.9L101.59 290.81ZM133.845 271L128.322 274.4C128.088 274.55 128.06 274.77 128.276 274.9L133.555 278.16C133.68 278.224 133.818 278.257 133.957 278.257C134.096 278.257 134.234 278.224 134.36 278.16L139.882 274.75C140.116 274.61 140.135 274.39 139.929 274.26L134.65 271C134.525 270.932 134.387 270.896 134.247 270.896C134.107 270.896 133.969 270.932 133.845 271ZM125.767 276L120.245 279.4C120.011 279.55 119.992 279.77 120.198 279.9L125.486 283.16C125.612 283.224 125.749 283.257 125.889 283.257C126.028 283.257 126.165 283.224 126.291 283.16L131.814 279.75C132.048 279.61 132.066 279.38 131.86 279.26L126.572 276C126.448 275.932 126.31 275.896 126.17 275.896C126.03 275.896 125.892 275.932 125.767 276ZM141.913 266L136.391 269.4C136.157 269.55 136.138 269.77 136.344 269.9L141.632 273.16C141.757 273.222 141.893 273.255 142.03 273.255C142.168 273.255 142.303 273.222 142.428 273.16L147.95 269.75C148.184 269.61 148.212 269.39 147.997 269.26L142.718 266C142.594 265.932 142.456 265.896 142.316 265.896C142.176 265.896 142.038 265.932 141.913 266ZM109.63 285.91L104.108 289.32C103.874 289.46 103.846 289.69 104.061 289.81L109.34 293.07C109.465 293.138 109.603 293.174 109.743 293.174C109.883 293.174 110.021 293.138 110.145 293.07L115.668 289.67C115.902 289.52 115.92 289.3 115.714 289.17L110.435 285.91C110.309 285.848 110.171 285.816 110.032 285.818C109.893 285.82 109.755 285.854 109.63 285.92V285.91ZM117.699 280.91L112.176 284.32C111.942 284.47 111.924 284.69 112.13 284.82L117.418 288.08C117.542 288.142 117.678 288.175 117.816 288.175C117.953 288.175 118.089 288.142 118.214 288.08L123.736 284.67C123.97 284.52 123.998 284.3 123.783 284.17L118.504 280.92C118.377 280.859 118.238 280.829 118.099 280.833C117.96 280.836 117.823 280.873 117.699 280.94V280.91ZM107.403 313.34L112.925 309.93C113.168 309.79 113.187 309.57 112.981 309.44L107.693 306.18C107.567 306.116 107.43 306.083 107.29 306.083C107.151 306.083 107.014 306.116 106.888 306.18L101.366 309.59C101.132 309.73 101.113 309.95 101.319 310.08L106.607 313.34C106.722 313.405 106.849 313.441 106.978 313.447C107.108 313.452 107.237 313.426 107.356 313.37L107.403 313.34ZM64.8428 311.2L59.5544 308C59.4299 307.932 59.2919 307.896 59.1519 307.896C59.0119 307.896 58.874 307.932 58.7495 308L53.227 311.4C52.993 311.55 52.9743 311.77 53.227 311.9L58.5061 315.16C58.6318 315.224 58.7693 315.257 58.9086 315.257C59.0478 315.257 59.1853 315.224 59.311 315.16L64.8335 311.75C65.0207 311.58 65.0487 311.35 64.8335 311.23L64.8428 311.2ZM75.3635 314.02L70.0844 310.76C69.9599 310.692 69.8219 310.656 69.6819 310.656C69.5419 310.656 69.404 310.692 69.2795 310.76L60.7806 316C60.5466 316.14 60.5279 316.36 60.7806 316.49L66.069 319.75C66.1935 319.818 66.3315 319.854 66.4715 319.854C66.6115 319.854 66.7494 319.818 66.8739 319.75L75.3635 314.51C75.5319 314.4 75.5319 314.17 75.3541 314.05L75.3635 314.02ZM56.9617 304.76L51.6733 301.5C51.5504 301.432 51.414 301.396 51.2755 301.396C51.137 301.396 51.0005 301.432 50.8777 301.5L44.073 305.69C43.839 305.84 43.8202 306.06 44.073 306.19L49.3614 309.45C49.4871 309.514 49.6246 309.547 49.7639 309.547C49.9031 309.547 50.0406 309.514 50.1663 309.45L56.9617 305.25C57.1395 305.14 57.1582 304.92 56.9523 304.79L56.9617 304.76ZM62.1752 301.54C62.2985 301.607 62.4348 301.642 62.573 301.642C62.7112 301.642 62.8475 301.607 62.9708 301.54L68.4932 298.13C68.7272 297.98 68.7553 297.76 68.54 297.63L63.261 294.37C63.1352 294.306 62.9978 294.273 62.8585 294.273C62.7192 294.273 62.5817 294.306 62.456 294.37L56.9336 297.78C56.6996 297.93 56.6809 298.15 56.8868 298.28L62.1752 301.54ZM85.0417 317.36L79.7533 314.1C79.6288 314.038 79.493 314.005 79.3555 314.005C79.218 314.005 79.0822 314.038 78.9577 314.1L68.3341 320.65C68.1001 320.8 68.0814 321.02 68.2873 321.15L73.5663 324.41C73.692 324.474 73.8296 324.507 73.9688 324.507C74.1081 324.507 74.2456 324.474 74.3713 324.41L84.9949 317.86C85.2195 317.74 85.2382 317.52 85.0323 317.39L85.0417 317.36ZM88.7857 324.36L83.4973 321.1C83.3728 321.032 83.2348 320.996 83.0948 320.996C82.9548 320.996 82.8168 321.032 82.6923 321.1L75.897 325.29C75.663 325.43 75.6442 325.66 75.8502 325.78L81.1386 329.04C81.2614 329.108 81.3979 329.144 81.5364 329.144C81.6749 329.144 81.8113 329.108 81.9342 329.04L88.7389 324.85C88.9448 324.76 88.9635 324.53 88.7576 324.41L88.7857 324.36ZM122.201 264.51C122.327 264.574 122.464 264.607 122.603 264.607C122.743 264.607 122.88 264.574 123.006 264.51L128.528 261.1C128.762 260.96 128.781 260.74 128.528 260.61L123.268 257.37C123.145 257.302 123.009 257.266 122.87 257.266C122.732 257.266 122.595 257.302 122.472 257.37L116.95 260.77C116.716 260.92 116.688 261.14 116.903 261.27L122.201 264.51ZM106.055 274.46C106.181 274.524 106.318 274.557 106.457 274.557C106.597 274.557 106.734 274.524 106.86 274.46L112.382 271.05C112.616 270.9 112.635 270.68 112.382 270.55L107.103 267.3C106.977 267.236 106.84 267.203 106.701 267.203C106.561 267.203 106.424 267.236 106.298 267.3L100.776 270.71C100.542 270.86 100.523 271.08 100.729 271.21L106.055 274.46ZM70.2342 296.6C70.3586 296.662 70.4945 296.695 70.632 296.695C70.7695 296.695 70.9053 296.662 71.0298 296.6L76.5615 293.19C76.7955 293.05 76.8142 292.82 76.6083 292.7L71.3199 289.44C71.1954 289.372 71.0575 289.336 70.9175 289.336C70.7775 289.336 70.6395 289.372 70.515 289.44L64.9926 292.84C64.7586 292.99 64.7399 293.21 64.9458 293.34L70.2342 296.6ZM114.104 269.54C114.229 269.602 114.365 269.635 114.502 269.635C114.64 269.635 114.776 269.602 114.9 269.54L120.422 266.13C120.656 265.99 120.685 265.76 120.422 265.64L115.143 262.38C115.019 262.312 114.881 262.276 114.741 262.276C114.601 262.276 114.463 262.312 114.338 262.38L108.816 265.78C108.582 265.93 108.563 266.15 108.769 266.28L114.104 269.54ZM97.9959 279.49C98.1204 279.558 98.2584 279.594 98.3984 279.594C98.5384 279.594 98.6764 279.558 98.8009 279.49L104.323 276.09C104.557 275.94 104.576 275.72 104.37 275.59L99.0817 272.33C98.9572 272.268 98.8214 272.235 98.6839 272.235C98.5464 272.235 98.4106 272.268 98.2861 272.33L92.7637 275.74C92.5297 275.88 92.5016 276.11 92.7169 276.23L97.9959 279.49ZM92.7543 324.75C92.6286 324.686 92.4911 324.653 92.3518 324.653C92.2126 324.653 92.0751 324.686 91.9494 324.75L83.4224 330C83.1884 330.15 83.1603 330.37 83.3756 330.5L88.6547 333.76C88.7804 333.824 88.9179 333.857 89.0571 333.857C89.1964 333.857 89.3339 333.824 89.4596 333.76L97.9491 328.52C98.1925 328.37 98.2112 328.15 97.9959 328.02L92.7543 324.75ZM86.4082 286.64C86.534 286.704 86.6715 286.737 86.8107 286.737C86.95 286.737 87.0875 286.704 87.2132 286.64L92.7356 283.23C92.9696 283.09 92.9883 282.87 92.7356 282.74L87.4566 279.48C87.3321 279.412 87.1941 279.376 87.0541 279.376C86.9141 279.376 86.7761 279.412 86.6516 279.48L81.1292 282.88C80.8952 283.03 80.8765 283.25 81.0824 283.38L86.4082 286.64ZM78.3399 291.64C78.4657 291.704 78.6031 291.737 78.7424 291.737C78.8817 291.737 79.0192 291.704 79.1449 291.64L84.6673 288.23C84.9013 288.09 84.92 287.86 84.7141 287.74L79.4257 284.48C79.3029 284.412 79.1664 284.376 79.0279 284.376C78.8894 284.376 78.7529 284.412 78.6301 284.48L73.1077 287.88C72.8737 288.03 72.8456 288.25 73.0609 288.38L78.3399 291.64ZM242.29 232.54C242.165 232.472 242.027 232.436 241.887 232.436C241.747 232.436 241.609 232.472 241.485 232.54L227.894 240.92C227.66 241.07 227.632 241.29 227.847 241.42L233.126 244.68C233.252 244.744 233.389 244.777 233.529 244.777C233.668 244.777 233.805 244.744 233.931 244.68L247.522 236.29C247.756 236.15 247.784 235.93 247.569 235.8L242.29 232.54ZM224.45 243.54C224.324 243.476 224.186 243.443 224.047 243.443C223.908 243.443 223.77 243.476 223.645 243.54L218.085 247C217.851 247.14 217.832 247.37 218.038 247.49L223.317 250.75C223.441 250.818 223.579 250.854 223.719 250.854C223.859 250.854 223.997 250.818 224.122 250.75L229.644 247.35C229.878 247.2 229.897 246.98 229.691 246.85L224.45 243.54ZM115.471 308.39L120.993 304.99C121.227 304.84 121.246 304.62 121.04 304.49L115.78 301.23C115.655 301.168 115.52 301.135 115.382 301.135C115.245 301.135 115.109 301.168 114.984 301.23L109.462 304.64C109.228 304.78 109.2 305 109.415 305.13L114.694 308.39C114.815 308.454 114.948 308.487 115.083 308.487C115.217 308.487 115.35 308.454 115.471 308.39ZM208.266 253.48C208.14 253.416 208.003 253.383 207.864 253.383C207.724 253.383 207.587 253.416 207.461 253.48L201.939 256.89C201.705 257.03 201.686 257.25 201.892 257.38L207.18 260.64C207.303 260.708 207.44 260.744 207.578 260.744C207.717 260.744 207.853 260.708 207.976 260.64L213.498 257.23C213.732 257.09 213.76 256.87 213.545 256.74L208.266 253.48ZM250.321 227.54C250.196 227.472 250.058 227.436 249.918 227.436C249.778 227.436 249.64 227.472 249.516 227.54L244.012 231C243.778 231.14 243.759 231.36 243.965 231.49L249.254 234.75C249.379 234.814 249.517 234.847 249.656 234.847C249.795 234.847 249.933 234.814 250.058 234.75L255.581 231.34C255.815 231.2 255.834 230.98 255.628 230.85L250.321 227.54ZM263.668 225.82L250.845 217.9C250.719 217.836 250.581 217.803 250.442 217.803C250.303 217.803 250.165 217.836 250.04 217.9L244.517 221.31C244.283 221.46 244.265 221.68 244.471 221.81L257.303 229.72C257.428 229.788 257.566 229.824 257.706 229.824C257.846 229.824 257.984 229.788 258.108 229.72L263.63 226.31C263.864 226.17 263.883 226 263.668 225.82ZM178.099 272.09C177.973 272.026 177.836 271.993 177.696 271.993C177.557 271.993 177.42 272.026 177.294 272.09L170.498 276.29C170.264 276.43 170.236 276.65 170.452 276.78L175.731 280.04C175.855 280.108 175.993 280.144 176.133 280.144C176.273 280.144 176.411 280.108 176.536 280.04L183.331 275.85C183.565 275.7 183.584 275.48 183.378 275.35L178.099 272.09ZM198.485 259.51C198.36 259.442 198.222 259.406 198.082 259.406C197.942 259.406 197.804 259.442 197.68 259.51L189.19 264.75C188.956 264.89 188.928 265.11 189.144 265.24L194.423 268.5C194.547 268.568 194.685 268.604 194.825 268.604C194.965 268.604 195.103 268.568 195.228 268.5L203.726 263.26C203.96 263.12 203.979 262.9 203.726 262.77L198.485 259.51ZM159.407 283.61C159.281 283.546 159.144 283.513 159.004 283.513C158.865 283.513 158.728 283.546 158.602 283.61L113.15 311.61C112.916 311.76 112.888 311.98 113.15 312.11L118.429 315.37C118.555 315.434 118.692 315.467 118.831 315.467C118.971 315.467 119.108 315.434 119.234 315.37L164.686 287.37C164.92 287.22 164.939 287 164.733 286.87L159.407 283.61ZM111.399 313.22C111.274 313.156 111.136 313.123 110.997 313.123C110.858 313.123 110.72 313.156 110.594 313.22L103.799 317.42C103.565 317.56 103.546 317.78 103.752 317.91L109.041 321.17C109.164 321.238 109.3 321.274 109.439 321.274C109.577 321.274 109.713 321.238 109.836 321.17L116.632 316.98C116.866 316.83 116.894 316.61 116.678 316.48L111.399 313.22ZM168.748 277.85C168.624 277.782 168.486 277.746 168.346 277.746C168.206 277.746 168.068 277.782 167.943 277.85L161.148 282.04C160.914 282.19 160.895 282.41 161.101 282.54L166.389 285.8C166.514 285.862 166.65 285.895 166.787 285.895C166.925 285.895 167.061 285.862 167.185 285.8L173.98 281.6C174.224 281.46 174.242 281.24 174.037 281.11L168.748 277.85ZM102.068 319C101.943 318.932 101.805 318.896 101.665 318.896C101.525 318.896 101.387 318.932 101.263 319L94.4672 323.19C94.2332 323.34 94.2051 323.56 94.4672 323.69L99.7462 326.95C99.872 327.014 100.009 327.047 100.149 327.047C100.288 327.047 100.425 327.014 100.551 326.95L107.347 322.75C107.581 322.61 107.599 322.39 107.393 322.26L102.068 319ZM187.449 266.33C187.325 266.262 187.187 266.226 187.047 266.226C186.907 266.226 186.769 266.262 186.644 266.33L179.849 270.52C179.615 270.67 179.596 270.89 179.802 271.02L185.091 274.28C185.215 274.342 185.351 274.375 185.489 274.375C185.626 274.375 185.762 274.342 185.886 274.28L192.682 270.08C192.925 269.94 192.944 269.72 192.738 269.59L187.449 266.33ZM216.334 248.51C216.21 248.448 216.074 248.415 215.937 248.415C215.799 248.415 215.663 248.448 215.539 248.51L210.016 251.92C209.773 252.06 209.754 252.28 209.97 252.41L215.249 255.67C215.373 255.738 215.511 255.774 215.651 255.774C215.791 255.774 215.929 255.738 216.054 255.67L221.576 252.27C221.81 252.12 221.829 251.9 221.623 251.77L216.334 248.51ZM234.418 235L239.94 231.6C240.174 231.45 240.193 231.23 239.987 231.1L234.699 227.84C234.574 227.778 234.438 227.745 234.301 227.745C234.163 227.745 234.028 227.778 233.903 227.84L228.381 231.25C228.147 231.39 228.119 231.61 228.334 231.74L233.613 235C233.737 235.068 233.875 235.104 234.015 235.104C234.155 235.104 234.293 235.068 234.418 235ZM201.48 236.7L207.002 233.29C207.236 233.15 207.255 232.92 207.049 232.8L201.761 229.54C201.638 229.472 201.502 229.436 201.363 229.436C201.225 229.436 201.088 229.472 200.965 229.54L195.443 232.94C195.209 233.09 195.181 233.31 195.396 233.44L200.675 236.7C200.799 236.767 200.936 236.804 201.076 236.807C201.215 236.811 201.353 236.781 201.48 236.72V236.7ZM180.036 268.54L196.182 258.59C196.416 258.44 196.435 258.22 196.229 258.09L190.95 254.83C190.824 254.766 190.687 254.733 190.548 254.733C190.408 254.733 190.271 254.766 190.145 254.83L173.999 264.83C173.765 264.97 173.746 265.19 173.952 265.32L179.241 268.58C179.365 268.645 179.502 268.678 179.641 268.674C179.779 268.671 179.915 268.631 180.036 268.56V268.54ZM225.545 240C225.667 240.068 225.804 240.104 225.942 240.104C226.081 240.104 226.217 240.068 226.34 240L231.863 236.6C232.106 236.45 232.125 236.23 231.919 236.1L226.63 232.84C226.505 232.776 226.367 232.743 226.228 232.743C226.089 232.743 225.951 232.776 225.825 232.84L220.303 236.25C220.069 236.39 220.05 236.61 220.256 236.74L225.545 240ZM218.796 235.32L224.318 231.91C224.552 231.76 224.581 231.54 224.365 231.41L219.086 228.16C218.961 228.096 218.823 228.063 218.684 228.063C218.545 228.063 218.407 228.096 218.281 228.16L212.759 231.57C212.525 231.72 212.506 231.94 212.712 232.07L217.991 235.33C218.115 235.397 218.252 235.434 218.391 235.437C218.531 235.441 218.669 235.411 218.796 235.35V235.32ZM171.996 273.51L177.518 270.11C177.752 269.96 177.771 269.74 177.565 269.61L172.286 266.35C172.161 266.286 172.023 266.253 171.884 266.253C171.745 266.253 171.607 266.286 171.481 266.35L165.959 269.76C165.725 269.9 165.706 270.12 165.912 270.25L171.191 273.51C171.306 273.574 171.433 273.609 171.562 273.614C171.692 273.62 171.821 273.594 171.94 273.54L171.996 273.51ZM207.704 251C207.829 251.062 207.965 251.095 208.102 251.095C208.24 251.095 208.376 251.062 208.5 251L214.022 247.59C214.256 247.45 214.285 247.22 214.069 247.1L208.79 243.84C208.666 243.772 208.528 243.736 208.388 243.736C208.248 243.736 208.11 243.772 207.985 243.84L202.463 247.24C202.229 247.39 202.21 247.61 202.416 247.74L207.704 251ZM131.608 298.4L137.139 294.99C137.373 294.84 137.392 294.62 137.186 294.49L131.898 291.23C131.772 291.166 131.635 291.133 131.495 291.133C131.356 291.133 131.219 291.166 131.093 291.23L125.57 294.64C125.336 294.79 125.318 295.01 125.524 295.14L130.812 298.39C130.932 298.465 131.066 298.508 131.204 298.517C131.343 298.525 131.481 298.499 131.608 298.44V298.4ZM139.685 293.4L145.208 289.99C145.442 289.84 145.46 289.62 145.255 289.5L139.966 286.24C139.843 286.172 139.707 286.136 139.568 286.136C139.43 286.136 139.293 286.172 139.171 286.24L133.648 289.64C133.414 289.79 133.386 290.01 133.601 290.14L138.88 293.4C139.002 293.473 139.137 293.517 139.277 293.527C139.416 293.538 139.555 293.515 139.685 293.46V293.4ZM123.539 303.4L129.062 300C129.296 299.85 129.324 299.63 129.109 299.5L123.83 296.24C123.704 296.176 123.566 296.143 123.427 296.143C123.288 296.143 123.15 296.176 123.025 296.24L117.502 299.65C117.268 299.79 117.249 300.02 117.455 300.14L122.734 303.4C122.858 303.47 122.996 303.507 123.136 303.509C123.276 303.511 123.414 303.477 123.539 303.41V303.4ZM155.822 283.49L161.344 280.08C161.588 279.94 161.606 279.72 161.401 279.59L156.112 276.33C155.988 276.262 155.85 276.226 155.71 276.226C155.57 276.226 155.432 276.262 155.307 276.33L149.785 279.73C149.551 279.88 149.532 280.1 149.738 280.23L155.026 283.49C155.15 283.554 155.286 283.588 155.423 283.59C155.561 283.592 155.697 283.561 155.822 283.5V283.49ZM147.754 288.49L153.276 285.08C153.51 284.94 153.529 284.72 153.323 284.59L148.044 281.33C147.919 281.262 147.781 281.226 147.641 281.226C147.501 281.226 147.363 281.262 147.239 281.33L141.716 284.73C141.482 284.88 141.464 285.1 141.716 285.23L146.996 288.49C147.116 288.545 147.245 288.572 147.376 288.571C147.506 288.569 147.635 288.538 147.754 288.48V288.49ZM163.9 278.49L169.422 275.08C169.656 274.94 169.675 274.72 169.469 274.59L164.18 271.33C164.058 271.262 163.921 271.226 163.783 271.226C163.644 271.226 163.508 271.262 163.385 271.33L157.9 274.8C157.666 274.94 157.638 275.16 157.9 275.29L163.179 278.55C163.294 278.6 163.418 278.623 163.542 278.617C163.667 278.612 163.788 278.579 163.9 278.52V278.49ZM207.948 209.23C208.071 209.298 208.207 209.334 208.346 209.334C208.484 209.334 208.621 209.298 208.743 209.23L214.266 205.82C214.5 205.68 214.528 205.46 214.266 205.33L212.862 204.46C212.736 204.396 212.599 204.363 212.459 204.363C212.32 204.363 212.183 204.396 212.057 204.46L206.572 207.9C206.338 208.04 206.319 208.26 206.525 208.39L207.948 209.23ZM167.822 236.4C167.947 236.464 168.085 236.497 168.224 236.497C168.363 236.497 168.501 236.464 168.626 236.4L174.149 232.99C174.383 232.85 174.411 232.63 174.196 232.5L168.917 229.24C168.792 229.172 168.654 229.136 168.514 229.136C168.374 229.136 168.236 229.172 168.112 229.24L162.589 232.64C162.355 232.79 162.337 233.01 162.542 233.14L167.822 236.4ZM183.968 226.4C184.092 226.468 184.23 226.504 184.37 226.504C184.51 226.504 184.648 226.468 184.772 226.4L190.295 222.99C190.529 222.85 190.548 222.63 190.342 222.5L185.044 219.25C184.919 219.188 184.784 219.155 184.646 219.155C184.509 219.155 184.373 219.188 184.248 219.25L178.726 222.66C178.492 222.8 178.464 223.02 178.679 223.15L183.968 226.4ZM157.965 242.4C158.091 242.464 158.229 242.497 158.368 242.497C158.507 242.497 158.645 242.464 158.77 242.4L164.293 238.99C164.527 238.85 164.555 238.62 164.34 238.5L159.061 235.24C158.936 235.172 158.798 235.136 158.658 235.136C158.518 235.136 158.38 235.172 158.256 235.24L152.733 238.64C152.499 238.79 152.48 239.01 152.686 239.14L157.965 242.4ZM175.899 231.34C176.025 231.404 176.162 231.437 176.302 231.437C176.441 231.437 176.578 231.404 176.704 231.34L182.236 228C182.47 227.86 182.489 227.64 182.283 227.51L176.994 224.25C176.87 224.182 176.732 224.146 176.592 224.146C176.452 224.146 176.314 224.182 176.189 224.25L170.667 227.65C170.433 227.8 170.414 228.02 170.62 228.15L175.899 231.34ZM141.829 252.34C141.953 252.408 142.091 252.444 142.231 252.444C142.371 252.444 142.509 252.408 142.634 252.34L148.156 248.94C148.39 248.79 148.409 248.57 148.203 248.44L142.924 245.24C142.798 245.176 142.661 245.143 142.521 245.143C142.382 245.143 142.245 245.176 142.119 245.24L136.597 248.65C136.363 248.8 136.344 249.02 136.597 249.15L141.829 252.34ZM149.897 247.34C150.023 247.404 150.16 247.437 150.3 247.437C150.439 247.437 150.576 247.404 150.702 247.34L156.224 243.93C156.458 243.78 156.477 243.56 156.271 243.43L150.983 240.18C150.86 240.112 150.724 240.076 150.585 240.076C150.447 240.076 150.31 240.112 150.187 240.18L144.665 243.58C144.431 243.73 144.403 243.95 144.618 244.08L149.897 247.34ZM191.802 219.1C191.928 219.164 192.065 219.197 192.204 219.197C192.344 219.197 192.481 219.164 192.607 219.1L198.129 215.69C198.363 215.55 198.382 215.33 198.129 215.2L196.716 214.33C196.593 214.262 196.457 214.226 196.318 214.226C196.18 214.226 196.043 214.262 195.92 214.33L190.398 217.74C190.164 217.88 190.136 218.1 190.398 218.23L191.802 219.1ZM216.016 204.16C216.141 204.228 216.279 204.264 216.419 204.264C216.559 204.264 216.697 204.228 216.821 204.16L222.344 200.76C222.578 200.61 222.596 200.39 222.344 200.26L220.93 199.39C220.806 199.328 220.67 199.295 220.532 199.295C220.395 199.295 220.259 199.328 220.135 199.39L214.612 202.8C214.378 202.94 214.35 203.17 214.565 203.29L216.016 204.16ZM227.164 211.13C227.288 211.192 227.424 211.225 227.562 211.225C227.699 211.225 227.835 211.192 227.96 211.13L233.482 207.72C233.716 207.58 233.744 207.36 233.529 207.23L228.25 203.97C228.125 203.902 227.987 203.866 227.847 203.866C227.707 203.866 227.569 203.902 227.445 203.97L221.922 207.37C221.688 207.52 221.67 207.74 221.876 207.87L227.164 211.13ZM242.486 230L248.009 226.6C248.243 226.45 248.271 226.23 248.055 226.1L242.776 222.84C242.651 222.776 242.513 222.743 242.374 222.743C242.235 222.743 242.097 222.776 241.971 222.84L236.449 226.25C236.215 226.39 236.196 226.62 236.402 226.74L241.681 230C241.806 230.068 241.944 230.104 242.084 230.104C242.224 230.104 242.362 230.068 242.486 230ZM199.87 214.2C199.996 214.264 200.133 214.297 200.273 214.297C200.412 214.297 200.549 214.264 200.675 214.2L206.198 210.79C206.432 210.65 206.45 210.43 206.198 210.3L204.794 209.43C204.668 209.366 204.53 209.333 204.391 209.333C204.252 209.333 204.114 209.366 203.989 209.43L198.466 212.84C198.232 212.98 198.213 213.2 198.419 213.33L199.87 214.2ZM133.751 257.41C133.876 257.478 134.014 257.514 134.154 257.514C134.294 257.514 134.432 257.478 134.556 257.41L140.116 254C140.35 253.85 140.378 253.63 140.116 253.5L134.837 250.24C134.711 250.176 134.574 250.143 134.434 250.143C134.295 250.143 134.158 250.176 134.032 250.24L128.51 253.65C128.276 253.79 128.257 254.01 128.463 254.14L133.751 257.41Z" fill="#1ABB9A"/>
<path opacity="0.1" d="M193.412 241.7L198.934 238.29C199.168 238.14 199.187 237.92 198.981 237.79L193.693 234.54C193.567 234.476 193.429 234.443 193.29 234.443C193.151 234.443 193.013 234.476 192.888 234.54L187.365 237.95C187.131 238.1 187.112 238.32 187.318 238.45L192.607 241.7C192.733 241.764 192.87 241.797 193.009 241.797C193.149 241.797 193.286 241.764 193.412 241.7ZM185.343 229.91L179.821 233.32C179.587 233.46 179.568 233.68 179.774 233.81L185.053 237.07C185.179 237.134 185.317 237.167 185.456 237.167C185.595 237.167 185.733 237.134 185.858 237.07L191.381 233.66C191.615 233.52 191.643 233.3 191.427 233.17L186.148 229.91C186.024 229.842 185.886 229.806 185.746 229.806C185.606 229.806 185.468 229.842 185.343 229.91ZM167.503 240.91L158.143 246.68C157.909 246.82 157.891 247.05 158.143 247.17L163.432 250.43C163.556 250.498 163.694 250.534 163.834 250.534C163.974 250.534 164.112 250.498 164.237 250.43L173.597 244.67C173.831 244.52 173.849 244.3 173.643 244.17L168.364 240.91C168.231 240.836 168.084 240.798 167.934 240.798C167.784 240.798 167.636 240.836 167.503 240.91ZM177.275 234.91L171.753 238.31C171.519 238.46 171.491 238.68 171.706 238.81L176.985 242.07C177.111 242.134 177.248 242.167 177.387 242.167C177.527 242.167 177.664 242.134 177.79 242.07L183.312 238.66C183.546 238.52 183.565 238.3 183.359 238.17L178.071 234.91C177.949 234.839 177.814 234.799 177.675 234.796C177.537 234.792 177.399 234.825 177.275 234.89V234.91ZM155.607 248.27L150.084 251.68C149.85 251.82 149.832 252.04 150.084 252.17L155.363 255.43C155.488 255.498 155.626 255.534 155.766 255.534C155.906 255.534 156.044 255.498 156.168 255.43L161.644 252C161.878 251.85 161.897 251.63 161.691 251.5L156.412 248.24C156.285 248.178 156.147 248.146 156.008 248.148C155.869 248.15 155.732 248.184 155.607 248.25V248.27ZM147.538 253.27L142.016 256.68C141.782 256.82 141.754 257.04 142.016 257.17L147.295 260.43C147.42 260.498 147.558 260.534 147.698 260.534C147.838 260.534 147.976 260.498 148.1 260.43L153.622 257.02C153.856 256.88 153.875 256.66 153.669 256.53L148.381 253.27C148.253 253.193 148.11 253.15 147.964 253.143C147.818 253.136 147.672 253.166 147.538 253.23V253.27ZM168.243 266.57L173.765 263.16C173.999 263.02 174.027 262.79 173.812 262.67L168.533 259.41C168.408 259.342 168.27 259.306 168.13 259.306C167.99 259.306 167.852 259.342 167.728 259.41L162.206 262.81C161.972 262.96 161.953 263.18 162.159 263.31L167.447 266.57C167.574 266.626 167.712 266.652 167.849 266.645C167.987 266.638 168.121 266.599 168.243 266.53V266.57ZM160.174 271.57L165.697 268.16C165.931 268.02 165.95 267.79 165.744 267.67L160.465 264.41C160.34 264.342 160.202 264.306 160.062 264.306C159.922 264.306 159.784 264.342 159.66 264.41L154.137 267.81C153.903 267.96 153.875 268.18 154.09 268.31L159.369 271.57C159.499 271.625 159.639 271.648 159.778 271.637C159.918 271.627 160.053 271.583 160.174 271.51V271.57ZM152.106 276.57L157.628 273.16C157.862 273.01 157.881 272.79 157.675 272.66L152.387 269.4C152.261 269.336 152.124 269.303 151.984 269.303C151.845 269.303 151.708 269.336 151.582 269.4L146.06 272.81C145.826 272.96 145.807 273.18 146.013 273.31L151.301 276.56C151.432 276.613 151.572 276.635 151.711 276.622C151.85 276.61 151.985 276.565 152.106 276.49V276.57ZM144.028 281.57L149.551 278.17C149.785 278.02 149.813 277.8 149.598 277.67L144.319 274.41C144.193 274.346 144.055 274.313 143.916 274.313C143.777 274.313 143.639 274.346 143.514 274.41L137.991 277.82C137.757 277.96 137.738 278.19 137.991 278.31L143.28 281.57C143.404 281.614 143.536 281.626 143.666 281.607C143.796 281.588 143.92 281.538 144.028 281.46V281.57ZM185.334 246.78L190.856 243.38C191.09 243.23 191.119 243.01 190.903 242.88L185.624 239.62C185.499 239.556 185.361 239.523 185.222 239.523C185.083 239.523 184.945 239.556 184.819 239.62L179.297 243.03C179.063 243.17 179.044 243.4 179.25 243.52L184.529 246.78C184.662 246.832 184.804 246.849 184.944 246.83C185.084 246.811 185.218 246.756 185.334 246.67V246.78ZM176.32 261.66L188.638 254.06C188.872 253.92 188.891 253.69 188.685 253.57L175.852 245.65C175.727 245.586 175.589 245.553 175.45 245.553C175.311 245.553 175.173 245.586 175.047 245.65L168.673 249.58C168.439 249.73 168.421 249.95 168.626 250.08L175.422 254.27C175.628 254.39 175.609 254.62 175.375 254.76L170.274 257.9C170.04 258.05 170.021 258.27 170.227 258.4L175.515 261.66C175.649 261.707 175.79 261.722 175.93 261.703C176.069 261.684 176.203 261.632 176.32 261.55V261.66ZM139.461 258.32L133.938 261.73C133.704 261.87 133.686 262.09 133.892 262.22L139.18 265.48C139.304 265.542 139.44 265.575 139.578 265.575C139.715 265.575 139.851 265.542 139.976 265.48L145.507 262.07C145.741 261.93 145.76 261.71 145.554 261.58L140.266 258.32C140.15 258.234 140.016 258.179 139.876 258.16C139.736 258.141 139.593 258.158 139.461 258.21V258.32ZM131.392 263.32L125.87 266.72C125.636 266.87 125.617 267.09 125.823 267.22L131.102 270.48C131.228 270.544 131.365 270.577 131.505 270.577C131.644 270.577 131.781 270.544 131.907 270.48L137.43 267.07C137.664 266.93 137.692 266.71 137.476 266.58L132.197 263.32C132.083 263.231 131.95 263.172 131.81 263.15C131.67 263.127 131.526 263.141 131.392 263.19V263.32ZM86.7639 316.34C86.8884 316.408 87.0264 316.444 87.1664 316.444C87.3064 316.444 87.4444 316.408 87.5689 316.34L93.0913 312.94C93.3253 312.79 93.344 312.57 93.1381 312.44L87.859 309.18C87.7333 309.116 87.5958 309.083 87.4566 309.083C87.3173 309.083 87.1798 309.116 87.0541 309.18L81.5317 312.59C81.2977 312.73 81.279 312.96 81.4849 313.08L86.7639 316.34ZM66.8178 303L61.2954 306.4C61.0614 306.55 61.0426 306.77 61.2954 306.9L66.5838 310.16C66.7095 310.224 66.847 310.257 66.9862 310.257C67.1255 310.257 67.263 310.224 67.3887 310.16L72.9111 306.75C73.1451 306.61 73.1638 306.38 72.9111 306.26L67.6227 303C67.4982 302.932 67.3602 302.896 67.2202 302.896C67.0802 302.896 66.9423 302.932 66.8178 303ZM77.0576 313C77.1833 313.064 77.3208 313.097 77.4601 313.097C77.5993 313.097 77.7369 313.064 77.8626 313L83.385 309.59C83.619 309.45 83.6377 309.23 83.4318 309.1L78.1434 305.84C78.0205 305.772 77.8841 305.736 77.7456 305.736C77.6071 305.736 77.4706 305.772 77.3478 305.84L71.8254 309.24C71.582 309.39 71.5633 309.61 71.7692 309.74L77.0576 313ZM99.325 318.35L104.847 314.94C105.081 314.8 105.1 314.58 104.894 314.45L99.6152 311.19C99.4907 311.122 99.3527 311.086 99.2127 311.086C99.0727 311.086 98.9347 311.122 98.8102 311.19L93.2878 314.6C93.0538 314.74 93.0351 314.96 93.241 315.09L98.5201 318.35C98.6458 318.414 98.7833 318.447 98.9226 318.447C99.0618 318.447 99.1993 318.414 99.325 318.35ZM90.4518 323.35C90.5775 323.414 90.715 323.447 90.8542 323.447C90.9935 323.447 91.131 323.414 91.2567 323.35L96.7791 319.94C97.0131 319.8 97.0318 319.58 96.8259 319.45L91.5375 316.19C91.4147 316.122 91.2782 316.086 91.1397 316.086C91.0012 316.086 90.8648 316.122 90.7419 316.19L85.2195 319.59C84.9855 319.74 84.9575 319.96 85.2195 320.09L90.4518 323.35ZM74.8955 298L69.373 301.4C69.139 301.55 69.111 301.77 69.373 301.9L74.5959 305.2C74.7217 305.264 74.8591 305.297 74.9984 305.297C75.1377 305.297 75.2752 305.264 75.4009 305.2L80.9233 301.79C81.1573 301.65 81.176 301.43 80.9233 301.3L75.691 298C75.5682 297.932 75.4317 297.896 75.2932 297.896C75.1547 297.896 75.0183 297.932 74.8955 298ZM115.246 273.1L109.724 276.51C109.49 276.66 109.471 276.88 109.677 277.01L114.966 280.26C115.089 280.327 115.225 280.362 115.363 280.362C115.502 280.362 115.638 280.327 115.761 280.26L121.293 276.85C121.527 276.7 121.546 276.48 121.34 276.35L116.051 273.1C115.923 273.042 115.784 273.016 115.645 273.023C115.505 273.03 115.369 273.07 115.246 273.14V273.1ZM82.9638 293.02L77.4414 296.43C77.2074 296.57 77.1886 296.79 77.4414 296.92L82.7204 300.18C82.8449 300.248 82.9829 300.284 83.1229 300.284C83.2629 300.284 83.4009 300.248 83.5254 300.18L89.0478 296.77C89.2818 296.63 89.3099 296.41 89.0946 296.28L83.7687 293C83.6398 292.941 83.4995 292.915 83.3594 292.926C83.2194 292.936 83.0837 292.982 82.9638 293.06V293.02ZM123.324 268.13L117.802 271.53C117.568 271.68 117.54 271.9 117.802 272.03L123.081 275.29C123.206 275.354 123.344 275.387 123.483 275.387C123.622 275.387 123.76 275.354 123.886 275.29L129.408 271.88C129.642 271.74 129.661 271.51 129.455 271.39L124.166 268.13C124.035 268.059 123.888 268.025 123.74 268.032C123.593 268.039 123.45 268.087 123.324 268.17V268.13ZM107.178 278.08L101.656 281.49C101.422 281.63 101.403 281.86 101.656 281.98L106.935 285.24C107.059 285.308 107.197 285.344 107.337 285.344C107.477 285.344 107.615 285.308 107.74 285.24L113.262 281.84C113.496 281.69 113.524 281.47 113.309 281.34L108.03 278.08C107.895 278.014 107.748 277.983 107.599 277.99C107.451 277.997 107.307 278.042 107.178 278.12V278.08ZM99.1098 283.08L93.5874 286.49C93.3534 286.63 93.3253 286.85 93.5874 286.98L98.8664 290.24C98.9909 290.308 99.1289 290.344 99.2689 290.344C99.4089 290.344 99.5469 290.308 99.6714 290.24L105.194 286.84C105.428 286.69 105.446 286.47 105.241 286.34L99.9615 283.08C99.8282 283.011 99.6815 282.977 99.5334 282.98C99.3853 282.984 99.2401 283.025 99.1098 283.1V283.08ZM91.0321 288.08L85.5097 291.49C85.2757 291.63 85.257 291.85 85.5097 291.98L90.7981 295.24C90.9226 295.308 91.0606 295.344 91.2006 295.344C91.3406 295.344 91.4785 295.308 91.603 295.24L97.1255 291.84C97.3595 291.69 97.3782 291.47 97.1255 291.34L91.837 288.08C91.7113 288.016 91.5738 287.983 91.4346 287.983C91.2953 287.983 91.1578 288.016 91.0321 288.08ZM127.892 291.42L133.414 288.01C133.648 287.87 133.667 287.65 133.414 287.52L128.126 284.26C128 284.196 127.863 284.163 127.723 284.163C127.584 284.163 127.447 284.196 127.321 284.26L121.798 287.67C121.564 287.81 121.546 288.03 121.798 288.16L127.087 291.42C127.211 291.488 127.349 291.524 127.489 291.524C127.629 291.524 127.767 291.488 127.892 291.42ZM203.184 218.9L197.661 222.31C197.427 222.45 197.408 222.68 197.614 222.8L202.903 226.06C203.026 226.128 203.162 226.164 203.301 226.164C203.439 226.164 203.576 226.128 203.698 226.06L209.221 222.66C209.455 222.51 209.483 222.29 209.268 222.16L203.989 218.9C203.863 218.836 203.725 218.803 203.586 218.803C203.447 218.803 203.309 218.836 203.184 218.9ZM193.412 224.9L187.889 228.31C187.655 228.45 187.637 228.67 187.843 228.8L193.131 232.06C193.254 232.128 193.39 232.164 193.529 232.164C193.667 232.164 193.804 232.128 193.927 232.06L199.458 228.65C199.692 228.51 199.711 228.29 199.505 228.16L194.217 224.9C194.089 224.841 193.95 224.813 193.811 224.818C193.672 224.823 193.535 224.861 193.412 224.93V224.9ZM211.261 213.9L205.739 217.3C205.505 217.45 205.477 217.67 205.692 217.8L210.971 221.05C211.097 221.114 211.234 221.147 211.374 221.147C211.513 221.147 211.65 221.114 211.776 221.05L217.298 217.64C217.532 217.49 217.551 217.27 217.345 217.14L212.057 213.89C211.93 213.826 211.79 213.796 211.65 213.803C211.509 213.81 211.373 213.854 211.252 213.93L211.261 213.9ZM166.642 258.2L172.165 254.8C172.399 254.65 172.427 254.43 172.211 254.3L166.932 251C166.807 250.936 166.669 250.903 166.53 250.903C166.391 250.903 166.253 250.936 166.127 251L160.605 254.41C160.371 254.55 160.352 254.78 160.558 254.9L165.847 258.16C165.966 258.235 166.101 258.277 166.24 258.284C166.378 258.291 166.516 258.262 166.642 258.2ZM220.135 208.92C220.01 208.852 219.872 208.816 219.732 208.816C219.592 208.816 219.454 208.852 219.33 208.92L213.807 212.32C213.573 212.47 213.554 212.69 213.76 212.82L219.039 216.08C219.165 216.144 219.303 216.177 219.442 216.177C219.581 216.177 219.719 216.144 219.844 216.08L225.367 212.67C225.601 212.53 225.62 212.3 225.414 212.18L220.135 208.92ZM135.96 286.44L141.482 283.04C141.716 282.89 141.735 282.67 141.529 282.54L136.25 279.28C136.125 279.216 135.987 279.183 135.848 279.183C135.709 279.183 135.571 279.216 135.445 279.28L129.923 282.69C129.689 282.83 129.661 283.05 129.876 283.18L135.155 286.44C135.28 286.508 135.418 286.544 135.558 286.544C135.698 286.544 135.836 286.508 135.96 286.44ZM234.942 225.39L240.464 221.98C240.698 221.84 240.717 221.62 240.511 221.49L235.223 218.23C235.1 218.162 234.964 218.126 234.825 218.126C234.687 218.126 234.55 218.162 234.427 218.23L228.905 221.63C228.671 221.78 228.643 222 228.858 222.13L234.137 225.39C234.263 225.454 234.4 225.487 234.54 225.487C234.679 225.487 234.816 225.454 234.942 225.39ZM219.32 225.71L224.843 222.3C225.077 222.16 225.095 221.94 224.889 221.81L219.61 218.55C219.485 218.486 219.347 218.453 219.208 218.453C219.069 218.453 218.931 218.486 218.805 218.55L213.283 221.96C213.049 222.1 213.03 222.32 213.236 222.45L218.515 225.71C218.64 225.778 218.778 225.814 218.918 225.814C219.058 225.814 219.196 225.778 219.32 225.71ZM227.679 213.57C227.553 213.506 227.415 213.473 227.276 213.473C227.137 213.473 226.999 213.506 226.874 213.57L221.351 216.98C221.117 217.12 221.099 217.34 221.305 217.47L226.593 220.73C226.716 220.798 226.852 220.834 226.991 220.834C227.129 220.834 227.266 220.798 227.389 220.73L232.911 217.33C233.145 217.18 233.173 216.96 232.958 216.83L227.679 213.57ZM229.382 212.52L242.205 220.44C242.331 220.504 242.469 220.537 242.608 220.537C242.747 220.537 242.885 220.504 243.01 220.44L248.533 217.03C248.767 216.89 248.786 216.67 248.58 216.54L235.747 208.62C235.623 208.558 235.487 208.525 235.349 208.525C235.212 208.525 235.076 208.558 234.951 208.62L229.429 212.03C229.195 212.17 229.167 212.4 229.382 212.52ZM210.737 223.52L205.215 226.93C204.981 227.07 204.953 227.29 205.168 227.42L210.447 230.68C210.573 230.744 210.71 230.777 210.849 230.777C210.989 230.777 211.126 230.744 211.252 230.68L216.774 227.27C217.008 227.13 217.027 226.91 216.821 226.78L211.533 223.52C211.407 223.458 211.269 223.429 211.13 223.436C210.992 223.443 210.857 223.485 210.737 223.56V223.52ZM149.991 261L144.459 264.41C144.225 264.55 144.206 264.77 144.412 264.9L149.701 268.16C149.825 268.228 149.963 268.264 150.103 268.264C150.243 268.264 150.381 268.228 150.506 268.16L156.028 264.75C156.262 264.61 156.281 264.39 156.075 264.26L150.786 261C150.662 260.938 150.526 260.905 150.389 260.905C150.251 260.905 150.115 260.938 149.991 261ZM226.069 230.37C226.193 230.432 226.329 230.465 226.467 230.465C226.604 230.465 226.74 230.432 226.864 230.37L232.396 226.96C232.63 226.82 232.649 226.59 232.443 226.47L227.164 223.21C227.039 223.142 226.901 223.106 226.761 223.106C226.621 223.106 226.483 223.142 226.359 223.21L220.837 226.61C220.603 226.76 220.584 226.98 220.79 227.11L226.069 230.37ZM158.059 256.02L152.537 259.43C152.303 259.57 152.275 259.79 152.537 259.92L157.816 263.18C157.94 263.248 158.078 263.284 158.218 263.284C158.358 263.284 158.496 263.248 158.621 263.18L164.143 259.78C164.377 259.63 164.396 259.41 164.19 259.28L158.836 256C158.711 255.948 158.576 255.926 158.442 255.935C158.308 255.943 158.178 255.983 158.059 256.05V256.02ZM94.8042 311.33C94.9275 311.397 95.0637 311.432 95.202 311.432C95.3402 311.432 95.4765 311.397 95.5998 311.33L101.122 307.92C101.356 307.77 101.384 307.55 101.122 307.42L95.8431 304.17C95.7174 304.106 95.5799 304.073 95.4407 304.073C95.3014 304.073 95.1639 304.106 95.0382 304.17L89.5158 307.58C89.2818 307.73 89.263 307.95 89.469 308.08L94.8042 311.33ZM85.4442 300.83L79.9218 304.24C79.6878 304.38 79.6691 304.6 79.9218 304.73L85.2008 307.99C85.3265 308.054 85.464 308.087 85.6033 308.087C85.7425 308.087 85.88 308.054 86.0058 307.99L91.5282 304.58C91.7622 304.44 91.7809 304.22 91.575 304.09L86.2959 300.83C86.1597 300.752 86.0067 300.714 85.8523 300.719C85.6978 300.724 85.5474 300.773 85.4161 300.86L85.4442 300.83ZM103.706 306.33L109.228 303C109.462 302.86 109.481 302.63 109.275 302.51L103.986 299.25C103.862 299.182 103.724 299.146 103.584 299.146C103.444 299.146 103.306 299.182 103.181 299.25L97.659 302.65C97.425 302.8 97.4062 303.02 97.6122 303.15L102.901 306.41C103.026 306.462 103.16 306.484 103.294 306.475C103.428 306.467 103.559 306.427 103.677 306.36L103.706 306.33ZM111.774 301.33L117.296 297.92C117.53 297.78 117.549 297.56 117.296 297.43L112.036 294.22C111.913 294.152 111.777 294.116 111.638 294.116C111.5 294.116 111.363 294.152 111.24 294.22L105.718 297.62C105.484 297.77 105.456 297.99 105.671 298.12L110.95 301.38C111.075 301.442 111.21 301.475 111.348 301.475C111.485 301.475 111.621 301.442 111.746 301.38L111.774 301.33ZM119.842 296.33L125.365 292.92C125.599 292.78 125.627 292.56 125.365 292.43L120.086 289.17C119.961 289.102 119.823 289.066 119.683 289.066C119.543 289.066 119.405 289.102 119.281 289.17L113.758 292.58C113.524 292.72 113.505 292.94 113.711 293.07L119 296.33C119.122 296.407 119.258 296.453 119.399 296.465C119.54 296.477 119.682 296.455 119.814 296.4L119.842 296.33ZM93.5125 295.81L87.9901 299.22C87.7561 299.36 87.7374 299.58 87.9433 299.71L93.2317 302.97C93.3545 303.038 93.491 303.074 93.6295 303.074C93.768 303.074 93.9044 303.038 94.0273 302.97L99.5497 299.57C99.7837 299.42 99.8118 299.2 99.5965 299.07L94.2519 295.85C94.1293 295.797 93.9975 295.772 93.8652 295.777C93.7328 295.782 93.6031 295.817 93.4844 295.88L93.5125 295.81ZM101.59 290.81L96.0678 294.22C95.8244 294.36 95.8057 294.58 96.0116 294.71L101.3 297.97C101.425 298.038 101.562 298.074 101.702 298.074C101.842 298.074 101.98 298.038 102.105 297.97L107.627 294.57C107.861 294.42 107.88 294.2 107.674 294.07L102.386 290.81C102.251 290.756 102.107 290.737 101.964 290.752C101.821 290.768 101.684 290.818 101.562 290.9L101.59 290.81ZM133.845 271L128.322 274.4C128.088 274.55 128.06 274.77 128.276 274.9L133.555 278.16C133.68 278.224 133.818 278.257 133.957 278.257C134.096 278.257 134.234 278.224 134.36 278.16L139.882 274.75C140.116 274.61 140.135 274.39 139.929 274.26L134.65 271C134.525 270.932 134.387 270.896 134.247 270.896C134.107 270.896 133.969 270.932 133.845 271ZM125.767 276L120.245 279.4C120.011 279.55 119.992 279.77 120.198 279.9L125.486 283.16C125.612 283.224 125.749 283.257 125.889 283.257C126.028 283.257 126.165 283.224 126.291 283.16L131.814 279.75C132.048 279.61 132.066 279.38 131.86 279.26L126.572 276C126.448 275.932 126.31 275.896 126.17 275.896C126.03 275.896 125.892 275.932 125.767 276ZM141.913 266L136.391 269.4C136.157 269.55 136.138 269.77 136.344 269.9L141.632 273.16C141.757 273.222 141.893 273.255 142.03 273.255C142.168 273.255 142.303 273.222 142.428 273.16L147.95 269.75C148.184 269.61 148.212 269.39 147.997 269.26L142.718 266C142.594 265.932 142.456 265.896 142.316 265.896C142.176 265.896 142.038 265.932 141.913 266ZM109.63 285.91L104.108 289.32C103.874 289.46 103.846 289.69 104.061 289.81L109.34 293.07C109.465 293.138 109.603 293.174 109.743 293.174C109.883 293.174 110.021 293.138 110.145 293.07L115.668 289.67C115.902 289.52 115.92 289.3 115.714 289.17L110.435 285.91C110.309 285.848 110.171 285.816 110.032 285.818C109.893 285.82 109.755 285.854 109.63 285.92V285.91ZM117.699 280.91L112.176 284.32C111.942 284.47 111.924 284.69 112.13 284.82L117.418 288.08C117.542 288.142 117.678 288.175 117.816 288.175C117.953 288.175 118.089 288.142 118.214 288.08L123.736 284.67C123.97 284.52 123.998 284.3 123.783 284.17L118.504 280.92C118.377 280.859 118.238 280.829 118.099 280.833C117.96 280.836 117.823 280.873 117.699 280.94V280.91ZM107.403 313.34L112.925 309.93C113.168 309.79 113.187 309.57 112.981 309.44L107.693 306.18C107.567 306.116 107.43 306.083 107.29 306.083C107.151 306.083 107.014 306.116 106.888 306.18L101.366 309.59C101.132 309.73 101.113 309.95 101.319 310.08L106.607 313.34C106.722 313.405 106.849 313.441 106.978 313.447C107.108 313.452 107.237 313.426 107.356 313.37L107.403 313.34ZM64.8428 311.2L59.5544 308C59.4299 307.932 59.2919 307.896 59.1519 307.896C59.0119 307.896 58.874 307.932 58.7495 308L53.227 311.4C52.993 311.55 52.9743 311.77 53.227 311.9L58.5061 315.16C58.6318 315.224 58.7693 315.257 58.9086 315.257C59.0478 315.257 59.1853 315.224 59.311 315.16L64.8335 311.75C65.0207 311.58 65.0487 311.35 64.8335 311.23L64.8428 311.2ZM75.3635 314.02L70.0844 310.76C69.9599 310.692 69.8219 310.656 69.6819 310.656C69.5419 310.656 69.404 310.692 69.2795 310.76L60.7806 316C60.5466 316.14 60.5279 316.36 60.7806 316.49L66.069 319.75C66.1935 319.818 66.3315 319.854 66.4715 319.854C66.6115 319.854 66.7494 319.818 66.8739 319.75L75.3635 314.51C75.5319 314.4 75.5319 314.17 75.3541 314.05L75.3635 314.02ZM56.9617 304.76L51.6733 301.5C51.5504 301.432 51.414 301.396 51.2755 301.396C51.137 301.396 51.0005 301.432 50.8777 301.5L44.073 305.69C43.839 305.84 43.8202 306.06 44.073 306.19L49.3614 309.45C49.4871 309.514 49.6246 309.547 49.7639 309.547C49.9031 309.547 50.0406 309.514 50.1663 309.45L56.9617 305.25C57.1395 305.14 57.1582 304.92 56.9523 304.79L56.9617 304.76ZM62.1752 301.54C62.2985 301.607 62.4348 301.642 62.573 301.642C62.7112 301.642 62.8475 301.607 62.9708 301.54L68.4932 298.13C68.7272 297.98 68.7553 297.76 68.54 297.63L63.261 294.37C63.1352 294.306 62.9978 294.273 62.8585 294.273C62.7192 294.273 62.5817 294.306 62.456 294.37L56.9336 297.78C56.6996 297.93 56.6809 298.15 56.8868 298.28L62.1752 301.54ZM85.0417 317.36L79.7533 314.1C79.6288 314.038 79.493 314.005 79.3555 314.005C79.218 314.005 79.0822 314.038 78.9577 314.1L68.3341 320.65C68.1001 320.8 68.0814 321.02 68.2873 321.15L73.5663 324.41C73.692 324.474 73.8296 324.507 73.9688 324.507C74.1081 324.507 74.2456 324.474 74.3713 324.41L84.9949 317.86C85.2195 317.74 85.2382 317.52 85.0323 317.39L85.0417 317.36ZM88.7857 324.36L83.4973 321.1C83.3728 321.032 83.2348 320.996 83.0948 320.996C82.9548 320.996 82.8168 321.032 82.6923 321.1L75.897 325.29C75.663 325.43 75.6442 325.66 75.8502 325.78L81.1386 329.04C81.2614 329.108 81.3979 329.144 81.5364 329.144C81.6749 329.144 81.8113 329.108 81.9342 329.04L88.7389 324.85C88.9448 324.76 88.9635 324.53 88.7576 324.41L88.7857 324.36ZM122.201 264.51C122.327 264.574 122.464 264.607 122.603 264.607C122.743 264.607 122.88 264.574 123.006 264.51L128.528 261.1C128.762 260.96 128.781 260.74 128.528 260.61L123.268 257.37C123.145 257.302 123.009 257.266 122.87 257.266C122.732 257.266 122.595 257.302 122.472 257.37L116.95 260.77C116.716 260.92 116.688 261.14 116.903 261.27L122.201 264.51ZM106.055 274.46C106.181 274.524 106.318 274.557 106.457 274.557C106.597 274.557 106.734 274.524 106.86 274.46L112.382 271.05C112.616 270.9 112.635 270.68 112.382 270.55L107.103 267.3C106.977 267.236 106.84 267.203 106.701 267.203C106.561 267.203 106.424 267.236 106.298 267.3L100.776 270.71C100.542 270.86 100.523 271.08 100.729 271.21L106.055 274.46ZM70.2342 296.6C70.3586 296.662 70.4945 296.695 70.632 296.695C70.7695 296.695 70.9053 296.662 71.0298 296.6L76.5615 293.19C76.7955 293.05 76.8142 292.82 76.6083 292.7L71.3199 289.44C71.1954 289.372 71.0575 289.336 70.9175 289.336C70.7775 289.336 70.6395 289.372 70.515 289.44L64.9926 292.84C64.7586 292.99 64.7399 293.21 64.9458 293.34L70.2342 296.6ZM114.104 269.54C114.229 269.602 114.365 269.635 114.502 269.635C114.64 269.635 114.776 269.602 114.9 269.54L120.422 266.13C120.656 265.99 120.685 265.76 120.422 265.64L115.143 262.38C115.019 262.312 114.881 262.276 114.741 262.276C114.601 262.276 114.463 262.312 114.338 262.38L108.816 265.78C108.582 265.93 108.563 266.15 108.769 266.28L114.104 269.54ZM97.9959 279.49C98.1204 279.558 98.2584 279.594 98.3984 279.594C98.5384 279.594 98.6764 279.558 98.8009 279.49L104.323 276.09C104.557 275.94 104.576 275.72 104.37 275.59L99.0817 272.33C98.9572 272.268 98.8214 272.235 98.6839 272.235C98.5464 272.235 98.4106 272.268 98.2861 272.33L92.7637 275.74C92.5297 275.88 92.5016 276.11 92.7169 276.23L97.9959 279.49ZM92.7543 324.75C92.6286 324.686 92.4911 324.653 92.3518 324.653C92.2126 324.653 92.0751 324.686 91.9494 324.75L83.4224 330C83.1884 330.15 83.1603 330.37 83.3756 330.5L88.6547 333.76C88.7804 333.824 88.9179 333.857 89.0571 333.857C89.1964 333.857 89.3339 333.824 89.4596 333.76L97.9491 328.52C98.1925 328.37 98.2112 328.15 97.9959 328.02L92.7543 324.75ZM86.4082 286.64C86.534 286.704 86.6715 286.737 86.8107 286.737C86.95 286.737 87.0875 286.704 87.2132 286.64L92.7356 283.23C92.9696 283.09 92.9883 282.87 92.7356 282.74L87.4566 279.48C87.3321 279.412 87.1941 279.376 87.0541 279.376C86.9141 279.376 86.7761 279.412 86.6516 279.48L81.1292 282.88C80.8952 283.03 80.8765 283.25 81.0824 283.38L86.4082 286.64ZM78.3399 291.64C78.4657 291.704 78.6031 291.737 78.7424 291.737C78.8817 291.737 79.0192 291.704 79.1449 291.64L84.6673 288.23C84.9013 288.09 84.92 287.86 84.7141 287.74L79.4257 284.48C79.3029 284.412 79.1664 284.376 79.0279 284.376C78.8894 284.376 78.7529 284.412 78.6301 284.48L73.1077 287.88C72.8737 288.03 72.8456 288.25 73.0609 288.38L78.3399 291.64ZM242.29 232.54C242.165 232.472 242.027 232.436 241.887 232.436C241.747 232.436 241.609 232.472 241.485 232.54L227.894 240.92C227.66 241.07 227.632 241.29 227.847 241.42L233.126 244.68C233.252 244.744 233.389 244.777 233.529 244.777C233.668 244.777 233.805 244.744 233.931 244.68L247.522 236.29C247.756 236.15 247.784 235.93 247.569 235.8L242.29 232.54ZM224.45 243.54C224.324 243.476 224.186 243.443 224.047 243.443C223.908 243.443 223.77 243.476 223.645 243.54L218.085 247C217.851 247.14 217.832 247.37 218.038 247.49L223.317 250.75C223.441 250.818 223.579 250.854 223.719 250.854C223.859 250.854 223.997 250.818 224.122 250.75L229.644 247.35C229.878 247.2 229.897 246.98 229.691 246.85L224.45 243.54ZM115.471 308.39L120.993 304.99C121.227 304.84 121.246 304.62 121.04 304.49L115.78 301.23C115.655 301.168 115.52 301.135 115.382 301.135C115.245 301.135 115.109 301.168 114.984 301.23L109.462 304.64C109.228 304.78 109.2 305 109.415 305.13L114.694 308.39C114.815 308.454 114.948 308.487 115.083 308.487C115.217 308.487 115.35 308.454 115.471 308.39ZM208.266 253.48C208.14 253.416 208.003 253.383 207.864 253.383C207.724 253.383 207.587 253.416 207.461 253.48L201.939 256.89C201.705 257.03 201.686 257.25 201.892 257.38L207.18 260.64C207.303 260.708 207.44 260.744 207.578 260.744C207.717 260.744 207.853 260.708 207.976 260.64L213.498 257.23C213.732 257.09 213.76 256.87 213.545 256.74L208.266 253.48ZM250.321 227.54C250.196 227.472 250.058 227.436 249.918 227.436C249.778 227.436 249.64 227.472 249.516 227.54L244.012 231C243.778 231.14 243.759 231.36 243.965 231.49L249.254 234.75C249.379 234.814 249.517 234.847 249.656 234.847C249.795 234.847 249.933 234.814 250.058 234.75L255.581 231.34C255.815 231.2 255.834 230.98 255.628 230.85L250.321 227.54ZM263.668 225.82L250.845 217.9C250.719 217.836 250.581 217.803 250.442 217.803C250.303 217.803 250.165 217.836 250.04 217.9L244.517 221.31C244.283 221.46 244.265 221.68 244.471 221.81L257.303 229.72C257.428 229.788 257.566 229.824 257.706 229.824C257.846 229.824 257.984 229.788 258.108 229.72L263.63 226.31C263.864 226.17 263.883 226 263.668 225.82ZM178.099 272.09C177.973 272.026 177.836 271.993 177.696 271.993C177.557 271.993 177.42 272.026 177.294 272.09L170.498 276.29C170.264 276.43 170.236 276.65 170.452 276.78L175.731 280.04C175.855 280.108 175.993 280.144 176.133 280.144C176.273 280.144 176.411 280.108 176.536 280.04L183.331 275.85C183.565 275.7 183.584 275.48 183.378 275.35L178.099 272.09ZM198.485 259.51C198.36 259.442 198.222 259.406 198.082 259.406C197.942 259.406 197.804 259.442 197.68 259.51L189.19 264.75C188.956 264.89 188.928 265.11 189.144 265.24L194.423 268.5C194.547 268.568 194.685 268.604 194.825 268.604C194.965 268.604 195.103 268.568 195.228 268.5L203.726 263.26C203.96 263.12 203.979 262.9 203.726 262.77L198.485 259.51ZM159.407 283.61C159.281 283.546 159.144 283.513 159.004 283.513C158.865 283.513 158.728 283.546 158.602 283.61L113.15 311.61C112.916 311.76 112.888 311.98 113.15 312.11L118.429 315.37C118.555 315.434 118.692 315.467 118.831 315.467C118.971 315.467 119.108 315.434 119.234 315.37L164.686 287.37C164.92 287.22 164.939 287 164.733 286.87L159.407 283.61ZM111.399 313.22C111.274 313.156 111.136 313.123 110.997 313.123C110.858 313.123 110.72 313.156 110.594 313.22L103.799 317.42C103.565 317.56 103.546 317.78 103.752 317.91L109.041 321.17C109.164 321.238 109.3 321.274 109.439 321.274C109.577 321.274 109.713 321.238 109.836 321.17L116.632 316.98C116.866 316.83 116.894 316.61 116.678 316.48L111.399 313.22ZM168.748 277.85C168.624 277.782 168.486 277.746 168.346 277.746C168.206 277.746 168.068 277.782 167.943 277.85L161.148 282.04C160.914 282.19 160.895 282.41 161.101 282.54L166.389 285.8C166.514 285.862 166.65 285.895 166.787 285.895C166.925 285.895 167.061 285.862 167.185 285.8L173.98 281.6C174.224 281.46 174.242 281.24 174.037 281.11L168.748 277.85ZM102.068 319C101.943 318.932 101.805 318.896 101.665 318.896C101.525 318.896 101.387 318.932 101.263 319L94.4672 323.19C94.2332 323.34 94.2051 323.56 94.4672 323.69L99.7462 326.95C99.872 327.014 100.009 327.047 100.149 327.047C100.288 327.047 100.425 327.014 100.551 326.95L107.347 322.75C107.581 322.61 107.599 322.39 107.393 322.26L102.068 319ZM187.449 266.33C187.325 266.262 187.187 266.226 187.047 266.226C186.907 266.226 186.769 266.262 186.644 266.33L179.849 270.52C179.615 270.67 179.596 270.89 179.802 271.02L185.091 274.28C185.215 274.342 185.351 274.375 185.489 274.375C185.626 274.375 185.762 274.342 185.886 274.28L192.682 270.08C192.925 269.94 192.944 269.72 192.738 269.59L187.449 266.33ZM216.334 248.51C216.21 248.448 216.074 248.415 215.937 248.415C215.799 248.415 215.663 248.448 215.539 248.51L210.016 251.92C209.773 252.06 209.754 252.28 209.97 252.41L215.249 255.67C215.373 255.738 215.511 255.774 215.651 255.774C215.791 255.774 215.929 255.738 216.054 255.67L221.576 252.27C221.81 252.12 221.829 251.9 221.623 251.77L216.334 248.51ZM234.418 235L239.94 231.6C240.174 231.45 240.193 231.23 239.987 231.1L234.699 227.84C234.574 227.778 234.438 227.745 234.301 227.745C234.163 227.745 234.028 227.778 233.903 227.84L228.381 231.25C228.147 231.39 228.119 231.61 228.334 231.74L233.613 235C233.737 235.068 233.875 235.104 234.015 235.104C234.155 235.104 234.293 235.068 234.418 235ZM201.48 236.7L207.002 233.29C207.236 233.15 207.255 232.92 207.049 232.8L201.761 229.54C201.638 229.472 201.502 229.436 201.363 229.436C201.225 229.436 201.088 229.472 200.965 229.54L195.443 232.94C195.209 233.09 195.181 233.31 195.396 233.44L200.675 236.7C200.799 236.767 200.936 236.804 201.076 236.807C201.215 236.811 201.353 236.781 201.48 236.72V236.7ZM180.036 268.54L196.182 258.59C196.416 258.44 196.435 258.22 196.229 258.09L190.95 254.83C190.824 254.766 190.687 254.733 190.548 254.733C190.408 254.733 190.271 254.766 190.145 254.83L173.999 264.83C173.765 264.97 173.746 265.19 173.952 265.32L179.241 268.58C179.365 268.645 179.502 268.678 179.641 268.674C179.779 268.671 179.915 268.631 180.036 268.56V268.54ZM225.545 240C225.667 240.068 225.804 240.104 225.942 240.104C226.081 240.104 226.217 240.068 226.34 240L231.863 236.6C232.106 236.45 232.125 236.23 231.919 236.1L226.63 232.84C226.505 232.776 226.367 232.743 226.228 232.743C226.089 232.743 225.951 232.776 225.825 232.84L220.303 236.25C220.069 236.39 220.05 236.61 220.256 236.74L225.545 240ZM218.796 235.32L224.318 231.91C224.552 231.76 224.581 231.54 224.365 231.41L219.086 228.16C218.961 228.096 218.823 228.063 218.684 228.063C218.545 228.063 218.407 228.096 218.281 228.16L212.759 231.57C212.525 231.72 212.506 231.94 212.712 232.07L217.991 235.33C218.115 235.397 218.252 235.434 218.391 235.437C218.531 235.441 218.669 235.411 218.796 235.35V235.32ZM171.996 273.51L177.518 270.11C177.752 269.96 177.771 269.74 177.565 269.61L172.286 266.35C172.161 266.286 172.023 266.253 171.884 266.253C171.745 266.253 171.607 266.286 171.481 266.35L165.959 269.76C165.725 269.9 165.706 270.12 165.912 270.25L171.191 273.51C171.306 273.574 171.433 273.609 171.562 273.614C171.692 273.62 171.821 273.594 171.94 273.54L171.996 273.51ZM207.704 251C207.829 251.062 207.965 251.095 208.102 251.095C208.24 251.095 208.376 251.062 208.5 251L214.022 247.59C214.256 247.45 214.285 247.22 214.069 247.1L208.79 243.84C208.666 243.772 208.528 243.736 208.388 243.736C208.248 243.736 208.11 243.772 207.985 243.84L202.463 247.24C202.229 247.39 202.21 247.61 202.416 247.74L207.704 251ZM131.608 298.4L137.139 294.99C137.373 294.84 137.392 294.62 137.186 294.49L131.898 291.23C131.772 291.166 131.635 291.133 131.495 291.133C131.356 291.133 131.219 291.166 131.093 291.23L125.57 294.64C125.336 294.79 125.318 295.01 125.524 295.14L130.812 298.39C130.932 298.465 131.066 298.508 131.204 298.517C131.343 298.525 131.481 298.499 131.608 298.44V298.4ZM139.685 293.4L145.208 289.99C145.442 289.84 145.46 289.62 145.255 289.5L139.966 286.24C139.843 286.172 139.707 286.136 139.568 286.136C139.43 286.136 139.293 286.172 139.171 286.24L133.648 289.64C133.414 289.79 133.386 290.01 133.601 290.14L138.88 293.4C139.002 293.473 139.137 293.517 139.277 293.527C139.416 293.538 139.555 293.515 139.685 293.46V293.4ZM123.539 303.4L129.062 300C129.296 299.85 129.324 299.63 129.109 299.5L123.83 296.24C123.704 296.176 123.566 296.143 123.427 296.143C123.288 296.143 123.15 296.176 123.025 296.24L117.502 299.65C117.268 299.79 117.249 300.02 117.455 300.14L122.734 303.4C122.858 303.47 122.996 303.507 123.136 303.509C123.276 303.511 123.414 303.477 123.539 303.41V303.4ZM155.822 283.49L161.344 280.08C161.588 279.94 161.606 279.72 161.401 279.59L156.112 276.33C155.988 276.262 155.85 276.226 155.71 276.226C155.57 276.226 155.432 276.262 155.307 276.33L149.785 279.73C149.551 279.88 149.532 280.1 149.738 280.23L155.026 283.49C155.15 283.554 155.286 283.588 155.423 283.59C155.561 283.592 155.697 283.561 155.822 283.5V283.49ZM147.754 288.49L153.276 285.08C153.51 284.94 153.529 284.72 153.323 284.59L148.044 281.33C147.919 281.262 147.781 281.226 147.641 281.226C147.501 281.226 147.363 281.262 147.239 281.33L141.716 284.73C141.482 284.88 141.464 285.1 141.716 285.23L146.996 288.49C147.116 288.545 147.245 288.572 147.376 288.571C147.506 288.569 147.635 288.538 147.754 288.48V288.49ZM163.9 278.49L169.422 275.08C169.656 274.94 169.675 274.72 169.469 274.59L164.18 271.33C164.058 271.262 163.921 271.226 163.783 271.226C163.644 271.226 163.508 271.262 163.385 271.33L157.9 274.8C157.666 274.94 157.638 275.16 157.9 275.29L163.179 278.55C163.294 278.6 163.418 278.623 163.542 278.617C163.667 278.612 163.788 278.579 163.9 278.52V278.49ZM207.948 209.23C208.071 209.298 208.207 209.334 208.346 209.334C208.484 209.334 208.621 209.298 208.743 209.23L214.266 205.82C214.5 205.68 214.528 205.46 214.266 205.33L212.862 204.46C212.736 204.396 212.599 204.363 212.459 204.363C212.32 204.363 212.183 204.396 212.057 204.46L206.572 207.9C206.338 208.04 206.319 208.26 206.525 208.39L207.948 209.23ZM167.822 236.4C167.947 236.464 168.085 236.497 168.224 236.497C168.363 236.497 168.501 236.464 168.626 236.4L174.149 232.99C174.383 232.85 174.411 232.63 174.196 232.5L168.917 229.24C168.792 229.172 168.654 229.136 168.514 229.136C168.374 229.136 168.236 229.172 168.112 229.24L162.589 232.64C162.355 232.79 162.337 233.01 162.542 233.14L167.822 236.4ZM183.968 226.4C184.092 226.468 184.23 226.504 184.37 226.504C184.51 226.504 184.648 226.468 184.772 226.4L190.295 222.99C190.529 222.85 190.548 222.63 190.342 222.5L185.044 219.25C184.919 219.188 184.784 219.155 184.646 219.155C184.509 219.155 184.373 219.188 184.248 219.25L178.726 222.66C178.492 222.8 178.464 223.02 178.679 223.15L183.968 226.4ZM157.965 242.4C158.091 242.464 158.229 242.497 158.368 242.497C158.507 242.497 158.645 242.464 158.77 242.4L164.293 238.99C164.527 238.85 164.555 238.62 164.34 238.5L159.061 235.24C158.936 235.172 158.798 235.136 158.658 235.136C158.518 235.136 158.38 235.172 158.256 235.24L152.733 238.64C152.499 238.79 152.48 239.01 152.686 239.14L157.965 242.4ZM175.899 231.34C176.025 231.404 176.162 231.437 176.302 231.437C176.441 231.437 176.578 231.404 176.704 231.34L182.236 228C182.47 227.86 182.489 227.64 182.283 227.51L176.994 224.25C176.87 224.182 176.732 224.146 176.592 224.146C176.452 224.146 176.314 224.182 176.189 224.25L170.667 227.65C170.433 227.8 170.414 228.02 170.62 228.15L175.899 231.34ZM141.829 252.34C141.953 252.408 142.091 252.444 142.231 252.444C142.371 252.444 142.509 252.408 142.634 252.34L148.156 248.94C148.39 248.79 148.409 248.57 148.203 248.44L142.924 245.24C142.798 245.176 142.661 245.143 142.521 245.143C142.382 245.143 142.245 245.176 142.119 245.24L136.597 248.65C136.363 248.8 136.344 249.02 136.597 249.15L141.829 252.34ZM149.897 247.34C150.023 247.404 150.16 247.437 150.3 247.437C150.439 247.437 150.576 247.404 150.702 247.34L156.224 243.93C156.458 243.78 156.477 243.56 156.271 243.43L150.983 240.18C150.86 240.112 150.724 240.076 150.585 240.076C150.447 240.076 150.31 240.112 150.187 240.18L144.665 243.58C144.431 243.73 144.403 243.95 144.618 244.08L149.897 247.34ZM191.802 219.1C191.928 219.164 192.065 219.197 192.204 219.197C192.344 219.197 192.481 219.164 192.607 219.1L198.129 215.69C198.363 215.55 198.382 215.33 198.129 215.2L196.716 214.33C196.593 214.262 196.457 214.226 196.318 214.226C196.18 214.226 196.043 214.262 195.92 214.33L190.398 217.74C190.164 217.88 190.136 218.1 190.398 218.23L191.802 219.1ZM216.016 204.16C216.141 204.228 216.279 204.264 216.419 204.264C216.559 204.264 216.697 204.228 216.821 204.16L222.344 200.76C222.578 200.61 222.596 200.39 222.344 200.26L220.93 199.39C220.806 199.328 220.67 199.295 220.532 199.295C220.395 199.295 220.259 199.328 220.135 199.39L214.612 202.8C214.378 202.94 214.35 203.17 214.565 203.29L216.016 204.16ZM227.164 211.13C227.288 211.192 227.424 211.225 227.562 211.225C227.699 211.225 227.835 211.192 227.96 211.13L233.482 207.72C233.716 207.58 233.744 207.36 233.529 207.23L228.25 203.97C228.125 203.902 227.987 203.866 227.847 203.866C227.707 203.866 227.569 203.902 227.445 203.97L221.922 207.37C221.688 207.52 221.67 207.74 221.876 207.87L227.164 211.13ZM242.486 230L248.009 226.6C248.243 226.45 248.271 226.23 248.055 226.1L242.776 222.84C242.651 222.776 242.513 222.743 242.374 222.743C242.235 222.743 242.097 222.776 241.971 222.84L236.449 226.25C236.215 226.39 236.196 226.62 236.402 226.74L241.681 230C241.806 230.068 241.944 230.104 242.084 230.104C242.224 230.104 242.362 230.068 242.486 230ZM199.87 214.2C199.996 214.264 200.133 214.297 200.273 214.297C200.412 214.297 200.549 214.264 200.675 214.2L206.198 210.79C206.432 210.65 206.45 210.43 206.198 210.3L204.794 209.43C204.668 209.366 204.53 209.333 204.391 209.333C204.252 209.333 204.114 209.366 203.989 209.43L198.466 212.84C198.232 212.98 198.213 213.2 198.419 213.33L199.87 214.2ZM133.751 257.41C133.876 257.478 134.014 257.514 134.154 257.514C134.294 257.514 134.432 257.478 134.556 257.41L140.116 254C140.35 253.85 140.378 253.63 140.116 253.5L134.837 250.24C134.711 250.176 134.574 250.143 134.434 250.143C134.295 250.143 134.158 250.176 134.032 250.24L128.51 253.65C128.276 253.79 128.257 254.01 128.463 254.14L133.751 257.41Z" fill="black"/>
<path opacity="0.4" d="M157.638 301.89L158.77 302.58L188.854 321.13L242.337 288.14L243.45 287.46L212.244 268.22L157.638 301.89Z" fill="black"/>
<path d="M158.771 302.58L188.854 321.13L242.337 288.14L212.244 269.59L158.771 302.58Z" fill="#1ABB9A"/>
<path opacity="0.45" d="M158.771 302.58L188.854 321.13L242.337 288.14L212.244 269.59L158.771 302.58Z" fill="black"/>
<path d="M3.45994 295.88C3.94305 296.17 4.45474 296.401 4.98562 296.57C4.45362 296.409 3.94147 296.181 3.45994 295.89C3.29834 295.789 3.1421 295.679 2.99194 295.56L3.45994 295.88Z" fill="#1ABB9A"/>
<path d="M12.0898 296.38C12.0898 296.38 12.0898 296.33 12.1647 296.3L12.1086 296.36L12.0898 296.38Z" fill="#1ABB9A"/>
<path d="M75.5481 161.008C75.525 160.297 75.643 159.588 75.8945 158.929C76.1671 158.244 76.4971 157.587 76.8805 156.965L95.5338 124.823L95.8536 124.453C95.9107 124.378 95.9838 124.32 96.0667 124.282C96.1633 124.194 96.2861 124.145 96.4132 124.145C96.5402 124.145 96.6631 124.194 96.7596 124.282C96.8617 124.416 96.9378 124.571 96.9836 124.737C97.0293 124.903 97.0438 125.078 97.0261 125.25V137.663C97.0606 138.561 96.877 139.453 96.4931 140.253C96.2079 140.835 95.8875 141.396 95.5338 141.933L87.5395 155.285L95.5338 158.702C95.8773 158.803 96.2018 158.966 96.4931 159.186C96.8662 159.413 97.0261 160.04 97.0261 161.065V173.449C97.0334 173.911 96.9422 174.368 96.7596 174.787C96.6178 175.15 96.3761 175.457 96.0667 175.67H95.8536C95.7487 175.699 95.6387 175.699 95.5338 175.67L76.8805 166.502C76.5033 166.339 76.1659 166.086 75.8945 165.762C75.6073 165.27 75.4852 164.687 75.5481 164.111V161.008Z" fill="#1ABB9A"/>
<path d="M116.106 106.545C116.27 105.847 116.502 105.17 116.798 104.524C117.089 103.872 117.565 103.334 118.158 102.987L124.366 99.1432C124.471 99.0506 124.603 99 124.74 99C124.876 99 125.008 99.0506 125.113 99.1432C125.327 99.4337 125.431 99.7993 125.406 100.168C125.436 100.414 125.436 100.663 125.406 100.908L109.684 172.51C109.549 173.172 109.334 173.814 109.044 174.417C108.747 175.103 108.264 175.678 107.658 176.068L101.45 179.855C101.349 179.945 101.221 179.995 101.09 179.995C100.958 179.995 100.831 179.945 100.73 179.855C100.615 179.721 100.527 179.564 100.472 179.392C100.417 179.221 100.396 179.039 100.41 178.858C100.39 178.602 100.39 178.345 100.41 178.09L116.106 106.545Z" fill="#1ABB9A"/>
<path d="M150.295 118.104C150.305 118.823 150.187 119.538 149.948 120.211C149.649 120.887 149.311 121.543 148.936 122.175L130.389 154.232C130.294 154.375 130.187 154.508 130.069 154.631H129.883C129.782 154.721 129.655 154.77 129.523 154.77C129.391 154.77 129.264 154.721 129.163 154.631C129.06 154.497 128.983 154.342 128.937 154.176C128.891 154.009 128.878 153.835 128.897 153.663V141.449C128.872 140.561 129.055 139.68 129.43 138.887C129.711 138.285 130.032 137.704 130.389 137.15L138.383 123.712L130.389 120.381C130.045 120.269 129.721 120.096 129.43 119.869C129.083 119.613 128.897 118.958 128.897 117.933V105.634C128.887 105.181 128.978 104.732 129.163 104.325C129.313 103.951 129.564 103.634 129.883 103.414H130.069H130.389L149.042 112.609C149.423 112.768 149.768 113.01 150.055 113.321C150.33 113.829 150.451 114.416 150.402 115.001L150.295 118.104Z" fill="#1ABB9A"/>
</g>
<defs>
<clipPath id="clip0_104_362">
<rect width="325" height="382" fill="white" transform="translate(0.5)"/>
</clipPath>
</defs>
</svg>
