<svg xmlns="http://www.w3.org/2000/svg" width="161" height="160" viewBox="0 0 161 160" fill="none">
  <g filter="url(#filter0_i_104_397)">
    <path d="M13.1177 117.735C13.1177 115.526 14.9085 113.735 17.1177 113.735H31.7245C33.9336 113.735 35.7245 115.526 35.7245 117.735V143.382C35.7245 145.591 33.9336 147.382 31.7245 147.382H17.1177C14.9085 147.382 13.1177 145.591 13.1177 143.382V117.735Z" fill="url(#paint0_linear_104_397)"/>
    <path d="M41.1571 106.519C41.1571 104.31 42.948 102.519 45.1571 102.519H59.7639C61.973 102.519 63.7639 104.31 63.7639 106.519V143.382C63.7639 145.591 61.973 147.382 59.7639 147.382H45.1571C42.948 147.382 41.1571 145.591 41.1571 143.382V106.519Z" fill="url(#paint1_linear_104_397)"/>
    <path d="M97.236 100.911C97.236 98.7021 99.0268 96.9113 101.236 96.9113H115.843C118.052 96.9113 119.843 98.7021 119.843 100.911V143.382C119.843 145.591 118.052 147.382 115.843 147.382H101.236C99.0268 147.382 97.236 145.591 97.236 143.382V100.911Z" fill="url(#paint2_linear_104_397)"/>
    <path d="M147.882 24.0088C147.882 30.2998 142.782 35.3998 136.491 35.3998C135.027 35.3998 133.628 35.1236 132.342 34.6206L119.132 48.0773C119.591 49.3138 119.843 50.6516 119.843 52.0482C119.843 58.3393 114.743 63.4392 108.452 63.4392C102.161 63.4392 97.0607 58.3393 97.0607 52.0482C97.0607 51.538 97.0943 51.0357 97.1592 50.5433L87.2061 44.3687C85.3094 45.7802 82.9584 46.6155 80.4123 46.6155C78.3908 46.6155 76.4922 46.0889 74.8463 45.1654L63.5459 54.6779C63.8023 55.6272 63.9391 56.6256 63.9391 57.6561C63.9391 63.9472 58.8392 69.0471 52.5481 69.0471C50.1883 69.0471 47.9962 68.3295 46.1779 67.1007L35.8366 73.2732C35.8783 73.6696 35.8997 74.0722 35.8997 74.4797C35.8997 80.7708 30.7998 85.8707 24.5087 85.8707C18.2176 85.8707 13.1177 80.7708 13.1177 74.4797C13.1177 68.1886 18.2176 63.0887 24.5087 63.0887C27.133 63.0887 29.55 63.9762 31.476 65.4673L41.3208 59.5912C41.2132 58.9623 41.1571 58.3157 41.1571 57.6561C41.1571 51.365 46.257 46.2651 52.5481 46.2651C54.5265 46.2651 56.3872 46.7694 58.0084 47.6566L69.3827 38.0821C69.1468 37.1689 69.0213 36.2114 69.0213 35.2245C69.0213 28.9334 74.1212 23.8335 80.4123 23.8335C86.7034 23.8335 91.8033 28.9334 91.8033 35.2245C91.8033 35.7067 91.7734 36.1818 91.7152 36.6483L101.722 42.8564C103.608 41.4737 105.934 40.6572 108.452 40.6572C110.059 40.6572 111.588 40.99 112.975 41.5906L125.962 28.3621C125.406 27.0209 125.1 25.5506 125.1 24.0088C125.1 17.7177 130.2 12.6177 136.491 12.6177C142.782 12.6177 147.882 17.7177 147.882 24.0088Z" fill="url(#paint3_linear_104_397)"/>
    <path d="M69.1965 89.6955C69.1965 87.4864 70.9874 85.6955 73.1965 85.6955H87.8033C90.0125 85.6955 91.8033 87.4864 91.8033 89.6955V143.382C91.8033 145.591 90.0125 147.382 87.8033 147.382H73.1965C70.9874 147.382 69.1965 145.591 69.1965 143.382V89.6955Z" fill="url(#paint4_linear_104_397)"/>
    <path d="M125.1 78.4797C125.1 76.2706 126.891 74.4797 129.1 74.4797H143.707C145.916 74.4797 147.707 76.2706 147.707 78.4797V143.382C147.707 145.591 145.916 147.382 143.707 147.382H129.1C126.891 147.382 125.1 145.591 125.1 143.382V78.4797Z" fill="url(#paint5_linear_104_397)"/>
  </g>
  <path d="M132.707 33.6893L132.091 33.4486L131.629 33.92L118.418 47.3768L117.973 47.8303L118.194 48.426C118.613 49.5525 118.843 50.7724 118.843 52.0482C118.843 57.787 114.191 62.4392 108.452 62.4392C102.713 62.4392 98.0607 57.787 98.0607 52.0482C98.0607 51.5819 98.0914 51.1233 98.1507 50.6741L98.2351 50.034L97.6864 49.6935L87.7333 43.5189L87.155 43.1602L86.6091 43.5664C84.879 44.854 82.736 45.6155 80.4123 45.6155C78.5665 45.6155 76.836 45.1352 75.3357 44.2933L74.732 43.9546L74.2023 44.4004L62.9019 53.9128L62.4142 54.3233L62.5805 54.9386C62.8142 55.8037 62.9391 56.7145 62.9391 57.6561C62.9391 63.3949 58.2869 68.0471 52.5481 68.0471C50.3941 68.0471 48.3959 67.3928 46.7378 66.2722L46.2111 65.9163L45.6653 66.242L35.324 72.4145L34.7751 72.7421L34.8421 73.3779C34.8802 73.7396 34.8997 74.1072 34.8997 74.4797C34.8997 80.2185 30.2475 84.8707 24.5087 84.8707C18.7699 84.8707 14.1177 80.2185 14.1177 74.4797C14.1177 68.7409 18.7699 64.0887 24.5087 64.0887C26.9037 64.0887 29.1069 64.8977 30.8639 66.258L31.403 66.6755L31.9886 66.326L41.8333 60.4499L42.4221 60.0984L42.3065 59.4225C42.2083 58.8491 42.1571 58.2589 42.1571 57.6561C42.1571 51.9173 46.8093 47.2651 52.5481 47.2651C54.3546 47.2651 56.0506 47.7252 57.5284 48.5338L58.1288 48.8624L58.6524 48.4216L70.0267 38.8471L70.5084 38.4416L70.3509 37.8319C70.1359 36.9998 70.0213 36.1263 70.0213 35.2245C70.0213 29.4857 74.6735 24.8335 80.4123 24.8335C86.1511 24.8335 90.8033 29.4857 90.8033 35.2245C90.8033 35.6652 90.776 36.0991 90.7229 36.5245L90.6436 37.1603L91.188 37.498L101.195 43.7062L101.769 44.0622L102.314 43.6628C104.033 42.4016 106.154 41.6572 108.452 41.6572C109.92 41.6572 111.314 41.961 112.578 42.5082L113.208 42.7811L113.689 42.2912L126.675 29.0626L127.138 28.5907L126.886 27.9796C126.38 26.7576 126.1 25.4171 126.1 24.0088C126.1 18.27 130.752 13.6177 136.491 13.6177C142.23 13.6177 146.882 18.27 146.882 24.0088C146.882 29.7476 142.23 34.3998 136.491 34.3998C135.154 34.3998 133.878 34.1477 132.707 33.6893ZM14.1177 117.735C14.1177 116.078 15.4608 114.735 17.1177 114.735H31.7245C33.3813 114.735 34.7245 116.078 34.7245 117.735V143.382C34.7245 145.039 33.3813 146.382 31.7245 146.382H17.1177C15.4608 146.382 14.1177 145.039 14.1177 143.382V117.735ZM42.1571 106.519C42.1571 104.862 43.5003 103.519 45.1571 103.519H59.7639C61.4207 103.519 62.7639 104.862 62.7639 106.519V143.382C62.7639 145.039 61.4207 146.382 59.7639 146.382H45.1571C43.5002 146.382 42.1571 145.039 42.1571 143.382V106.519ZM98.236 100.911C98.236 99.2544 99.5791 97.9113 101.236 97.9113H115.843C117.5 97.9113 118.843 99.2544 118.843 100.911V143.382C118.843 145.039 117.5 146.382 115.843 146.382H101.236C99.5791 146.382 98.236 145.039 98.236 143.382V100.911ZM70.1965 89.6955C70.1965 88.0386 71.5397 86.6955 73.1965 86.6955H87.8033C89.4602 86.6955 90.8033 88.0386 90.8033 89.6955V143.382C90.8033 145.039 89.4602 146.382 87.8033 146.382H73.1965C71.5397 146.382 70.1965 145.039 70.1965 143.382V89.6955ZM126.1 78.4797C126.1 76.8229 127.443 75.4797 129.1 75.4797H143.707C145.364 75.4797 146.707 76.8229 146.707 78.4797V143.382C146.707 145.039 145.364 146.382 143.707 146.382H129.1C127.443 146.382 126.1 145.039 126.1 143.382V78.4797Z" stroke="white" stroke-opacity="0.25" stroke-width="2"/>
  <defs>
    <filter id="filter0_i_104_397" x="13.1177" y="12.6177" width="134.764" height="138.765" filterUnits="userSpaceOnUse" color-interpolation-filters="sRGB">
      <feFlood flood-opacity="0" result="BackgroundImageFix"/>
      <feBlend mode="normal" in="SourceGraphic" in2="BackgroundImageFix" result="shape"/>
      <feColorMatrix in="SourceAlpha" type="matrix" values="0 0 0 0 0 0 0 0 0 0 0 0 0 0 0 0 0 0 127 0" result="hardAlpha"/>
      <feOffset dy="4"/>
      <feGaussianBlur stdDeviation="6.2"/>
      <feComposite in2="hardAlpha" operator="arithmetic" k2="-1" k3="1"/>
      <feColorMatrix type="matrix" values="0 0 0 0 0 0 0 0 0 0 0 0 0 0 0 0 0 0 0.25 0"/>
      <feBlend mode="normal" in2="shape" result="effect1_innerShadow_104_397"/>
    </filter>
    <linearGradient id="paint0_linear_104_397" x1="148.043" y1="12.9386" x2="18.5725" y2="147.703" gradientUnits="userSpaceOnUse">
      <stop stop-color="#0C5546"/>
      <stop offset="0.4" stop-color="#1ABB9A"/>
      <stop offset="0.436684" stop-color="#1ABB9A"/>
      <stop offset="1" stop-color="#0C5546"/>
    </linearGradient>
    <linearGradient id="paint1_linear_104_397" x1="148.043" y1="12.9386" x2="18.5725" y2="147.703" gradientUnits="userSpaceOnUse">
      <stop stop-color="#0C5546"/>
      <stop offset="0.4" stop-color="#1ABB9A"/>
      <stop offset="0.436684" stop-color="#1ABB9A"/>
      <stop offset="1" stop-color="#0C5546"/>
    </linearGradient>
    <linearGradient id="paint2_linear_104_397" x1="148.043" y1="12.9386" x2="18.5725" y2="147.703" gradientUnits="userSpaceOnUse">
      <stop stop-color="#0C5546"/>
      <stop offset="0.4" stop-color="#1ABB9A"/>
      <stop offset="0.436684" stop-color="#1ABB9A"/>
      <stop offset="1" stop-color="#0C5546"/>
    </linearGradient>
    <linearGradient id="paint3_linear_104_397" x1="148.043" y1="12.9386" x2="18.5725" y2="147.703" gradientUnits="userSpaceOnUse">
      <stop stop-color="#0C5546"/>
      <stop offset="0.4" stop-color="#1ABB9A"/>
      <stop offset="0.436684" stop-color="#1ABB9A"/>
      <stop offset="1" stop-color="#0C5546"/>
    </linearGradient>
    <linearGradient id="paint4_linear_104_397" x1="148.043" y1="12.9386" x2="18.5725" y2="147.703" gradientUnits="userSpaceOnUse">
      <stop stop-color="#0C5546"/>
      <stop offset="0.4" stop-color="#1ABB9A"/>
      <stop offset="0.436684" stop-color="#1ABB9A"/>
      <stop offset="1" stop-color="#0C5546"/>
    </linearGradient>
    <linearGradient id="paint5_linear_104_397" x1="148.043" y1="12.9386" x2="18.5725" y2="147.703" gradientUnits="userSpaceOnUse">
      <stop stop-color="#0C5546"/>
      <stop offset="0.4" stop-color="#1ABB9A"/>
      <stop offset="0.436684" stop-color="#1ABB9A"/>
      <stop offset="1" stop-color="#0C5546"/>
    </linearGradient>
  </defs>
</svg>