<svg width="122" height="40" viewBox="0 0 122 40" fill="none" xmlns="http://www.w3.org/2000/svg">
<path fill-rule="evenodd" clip-rule="evenodd" d="M26.4116 11.9141C25.2973 14.0553 24.1648 16.6606 23.0856 19.5734C20.73 25.931 17.0815 30.16 13.6114 32.7886C11.8796 34.1005 10.189 35.0162 8.72068 35.5998C7.48158 36.0923 6.33737 36.3732 5.4309 36.4181C5.26133 36.436 5.08537 36.4356 4.90381 36.4124L5.10303 33.923C5.13298 33.9242 5.16471 33.9247 5.19819 33.9245C5.2294 33.9132 5.29049 33.8849 5.38649 33.816C5.60214 33.6613 5.88568 33.3767 6.23472 32.9178C6.93179 32.0014 7.71163 30.6322 8.59678 28.9379C9.04166 28.0863 9.50949 27.159 9.99958 26.1876C11.4171 23.378 13.0208 20.1992 14.7938 17.4167C15.9948 15.532 17.309 13.7685 18.7494 12.3719C20.1871 10.978 21.8102 9.89134 23.6311 9.46807C24.1005 9.35896 24.5712 9.29562 25.0434 9.27907C25.0674 9.23725 25.0913 9.19563 25.1153 9.15422C25.8473 7.88828 26.5876 6.78878 27.3225 5.91406C28.0452 5.05382 28.8232 4.33759 29.6473 3.932C30.512 3.50649 31.5092 3.39464 32.4484 3.92782C33.311 4.41757 33.8955 5.3286 34.309 6.39288C35.1381 8.52676 35.5684 12.037 35.5684 17.0911L33.3489 17.8235C30.6478 14.0147 28.3485 12.3649 26.4116 11.9141ZM23.5732 12.0837C22.6237 14.0466 21.685 16.2794 20.7918 18.6899C18.6114 24.5747 15.2638 28.4225 12.1491 30.7819C11.2102 31.4931 10.2935 32.0682 9.43791 32.5225C9.87303 31.7832 10.3142 30.9681 10.7609 30.1132C11.239 29.1979 11.7283 28.2283 12.232 27.2301C13.6354 24.4486 15.1507 21.4454 16.85 18.7787C17.9965 16.9793 19.1914 15.3933 20.4391 14.1835C21.4873 13.1672 22.531 12.457 23.5732 12.0837ZM27.6761 9.67279C29.4378 10.2619 31.2205 11.5126 33.0267 13.4755C32.8665 10.5257 32.5034 8.53353 32.0294 7.31367C31.705 6.4788 31.4002 6.19421 31.2555 6.11205C31.1873 6.07333 31.059 6.01328 30.7131 6.18348C30.3268 6.3736 29.8092 6.79698 29.1846 7.54044C28.7069 8.10903 28.201 8.82321 27.6761 9.67279ZM5.17299 33.9314C5.17302 33.9312 5.1747 33.9309 5.17798 33.9306C5.1746 33.9313 5.17296 33.9315 5.17299 33.9314Z" fill="#1ABB9A"/>
<path d="M109.885 33.025C109.002 33.025 108.34 32.7833 107.899 32.3C107.474 31.8333 107.261 31.2083 107.261 30.425V29C105.333 28.7667 103.796 27.8833 102.652 26.35C101.524 24.8167 100.96 22.7083 100.96 20.025C100.96 18.0583 101.262 16.4083 101.867 15.075C102.472 13.7417 103.322 12.7333 104.417 12.05C105.529 11.35 106.828 11 108.316 11C109.803 11 111.095 11.35 112.19 12.05C113.301 12.7333 114.16 13.7417 114.764 15.075C115.369 16.4083 115.672 18.0583 115.672 20.025C115.672 22.6417 115.132 24.7083 114.053 26.225C112.991 27.725 111.544 28.625 109.713 28.925V30.825H112.337V33.025H109.885ZM108.316 26.675C109.231 26.675 110.024 26.4583 110.694 26.025C111.381 25.5917 111.912 24.9833 112.288 24.2C112.68 23.4167 112.876 22.4917 112.876 21.425V18.625C112.876 17.5417 112.68 16.6083 112.288 15.825C111.912 15.0417 111.381 14.4417 110.694 14.025C110.024 13.5917 109.231 13.375 108.316 13.375C107.417 13.375 106.624 13.5917 105.937 14.025C105.251 14.4417 104.711 15.0417 104.319 15.825C103.943 16.6083 103.755 17.5417 103.755 18.625V21.425C103.755 22.4917 103.943 23.4167 104.319 24.2C104.711 24.9833 105.251 25.5917 105.937 26.025C106.624 26.4583 107.417 26.675 108.316 26.675Z" fill="#333333"/>
<path d="M91.4187 28.75V26.575H93.7481V13.475H91.4187V11.3H98.701V13.475H96.3717V26.575H98.701V28.75H91.4187Z" fill="#333333"/>
<path d="M81.2105 29.0501C80.0336 29.0501 79.0365 28.8334 78.2191 28.4001C77.4018 27.9501 76.6908 27.3418 76.0859 26.5751L77.7287 25.0751C78.2028 25.6584 78.7341 26.1168 79.3225 26.4501C79.911 26.7834 80.5894 26.9501 81.3576 26.9501C82.1586 26.9501 82.7553 26.7918 83.1476 26.4751C83.5562 26.1584 83.7606 25.7168 83.7606 25.1501C83.7606 24.7001 83.6216 24.3251 83.3437 24.0251C83.0658 23.7251 82.5673 23.5251 81.848 23.4251L80.7201 23.2751C79.8865 23.1418 79.1509 22.9334 78.5134 22.6501C77.8922 22.3501 77.41 21.9418 77.0667 21.4251C76.7234 20.8918 76.5518 20.2251 76.5518 19.4251C76.5518 18.1584 76.985 17.1834 77.8513 16.5001C78.7341 15.8168 79.862 15.4751 81.235 15.4751C81.987 15.4751 82.6408 15.5584 83.1966 15.7251C83.7687 15.8918 84.2755 16.1334 84.7168 16.4501C85.1582 16.7501 85.5587 17.1168 85.9183 17.5501L84.3736 19.0751C84.0466 18.6584 83.6134 18.3084 83.074 18.0251C82.5509 17.7251 81.9298 17.5751 81.2105 17.5751C80.4749 17.5751 79.9192 17.7251 79.5432 18.0251C79.1672 18.3251 78.9792 18.7418 78.9792 19.2751C78.9792 19.7918 79.1509 20.1834 79.4942 20.4501C79.8374 20.7001 80.3523 20.8834 81.0389 21.0001L82.1913 21.1751C83.5971 21.3751 84.6106 21.7918 85.2317 22.4251C85.8692 23.0418 86.188 23.8668 86.188 24.9001C86.188 25.7334 85.9837 26.4668 85.575 27.1001C85.1664 27.7168 84.5861 28.2001 83.8341 28.5501C83.0985 28.8834 82.224 29.0501 81.2105 29.0501Z" fill="#333333"/>
<path d="M68.8836 29.0501C67.6903 29.0501 66.6523 28.7751 65.7696 28.2251C64.9033 27.6584 64.2249 26.8668 63.7345 25.8501C63.2605 24.8334 63.0234 23.6334 63.0234 22.2501C63.0234 20.8834 63.2605 19.6918 63.7345 18.6751C64.2086 17.6584 64.8788 16.8751 65.7451 16.3251C66.6115 15.7584 67.6413 15.4751 68.8346 15.4751C70.0606 15.4751 71.0904 15.7584 71.924 16.3251C72.7577 16.8918 73.387 17.6668 73.812 18.6501C74.2534 19.6168 74.4741 20.7001 74.4741 21.9001V22.9001H65.647V23.3751C65.647 24.4084 65.9413 25.2584 66.5297 25.9251C67.1346 26.5918 67.9927 26.9251 69.1043 26.9251C69.8889 26.9251 70.5591 26.7418 71.1149 26.3751C71.6707 26.0084 72.1284 25.5168 72.488 24.9001L74.0082 26.3501C73.5505 27.1501 72.8803 27.8001 71.9976 28.3001C71.1149 28.8001 70.0769 29.0501 68.8836 29.0501ZM65.647 21.1751H71.826V20.9251C71.826 20.2418 71.7034 19.6418 71.4582 19.1251C71.2293 18.6084 70.886 18.2084 70.4283 17.9251C69.987 17.6418 69.4639 17.5001 68.8591 17.5001C68.2216 17.5001 67.6576 17.6501 67.1672 17.9501C66.6932 18.2501 66.3172 18.6668 66.0393 19.2001C65.7778 19.7168 65.647 20.3168 65.647 21.0001V21.1751Z" fill="#333333"/>
<path d="M48.76 28.75V11.3H55.9933C57.0231 11.3 57.8976 11.5084 58.6169 11.925C59.3525 12.325 59.9164 12.9084 60.3087 13.675C60.7174 14.4417 60.9217 15.3667 60.9217 16.45C60.9217 17.6834 60.6357 18.7334 60.0635 19.6C59.5078 20.45 58.6823 21.025 57.5871 21.325L61.314 28.75H58.3962L54.9144 21.625H51.3591V28.75H48.76ZM51.3591 19.35H55.8462C56.3366 19.35 56.7534 19.2667 57.0967 19.1C57.4399 18.9167 57.7015 18.6584 57.8813 18.325C58.0611 17.9917 58.151 17.5834 58.151 17.1V15.875C58.151 15.3917 58.0611 14.9834 57.8813 14.65C57.7015 14.3167 57.4399 14.0667 57.0967 13.9C56.7534 13.7167 56.3366 13.625 55.8462 13.625H51.3591V19.35Z" fill="#333333"/>
<path opacity="0.8" d="M79.8908 33.1625C79.7375 33.1625 79.6088 33.1365 79.5046 33.0844C79.4004 33.0303 79.3084 32.9563 79.2288 32.8625L79.4648 32.6313C79.524 32.7 79.5894 32.7542 79.6609 32.7938C79.7324 32.8334 79.8142 32.8532 79.9061 32.8532C80.0001 32.8532 80.0686 32.8365 80.1115 32.8032C80.1544 32.7678 80.1758 32.7198 80.1758 32.6594C80.1758 32.6115 80.1605 32.573 80.1299 32.5438C80.0992 32.5146 80.0481 32.4948 79.9766 32.4844L79.8172 32.4625C79.7048 32.448 79.6088 32.4209 79.5291 32.3813C79.4494 32.3417 79.3892 32.2886 79.3483 32.2219C79.3074 32.1532 79.287 32.0698 79.287 31.9719C79.287 31.8115 79.3422 31.6855 79.4525 31.5938C79.5628 31.5021 79.7089 31.4563 79.8908 31.4563C79.995 31.4563 80.0839 31.4667 80.1574 31.4875C80.231 31.5063 80.2954 31.5355 80.3505 31.575C80.4077 31.6125 80.4619 31.6584 80.513 31.7125L80.2831 31.9438C80.2381 31.8938 80.183 31.8521 80.1176 31.8188C80.0522 31.7834 79.9797 31.7657 79.9 31.7657C79.8162 31.7657 79.7539 31.7823 79.713 31.8157C79.6742 31.8469 79.6548 31.8886 79.6548 31.9407C79.6548 31.9969 79.6711 32.0396 79.7038 32.0688C79.7365 32.0959 79.7917 32.1157 79.8693 32.1282L80.0287 32.15C80.2044 32.175 80.3342 32.2282 80.418 32.3094C80.5017 32.3886 80.5436 32.4959 80.5436 32.6313C80.5436 32.7355 80.5171 32.8282 80.4639 32.9094C80.4108 32.9886 80.3352 33.0511 80.2371 33.0969C80.139 33.1407 80.0236 33.1625 79.8908 33.1625Z" fill="#333333"/>
<path opacity="0.8" d="M78.3349 33.1625C78.1776 33.1625 78.0427 33.1282 77.9303 33.0594C77.8179 32.9886 77.7321 32.8896 77.6729 32.7625C77.6136 32.6334 77.584 32.4823 77.584 32.3094C77.584 32.1365 77.6126 31.9865 77.6698 31.8594C77.7291 31.7323 77.8139 31.6334 77.9242 31.5625C78.0345 31.4917 78.1673 31.4563 78.3226 31.4563C78.4881 31.4563 78.624 31.4938 78.7303 31.5688C78.8386 31.6438 78.9183 31.7438 78.9693 31.8688C79.0225 31.9917 79.049 32.1282 79.049 32.2782V32.4094H77.9824V32.45C77.9824 32.5688 78.0151 32.6646 78.0805 32.7375C78.1479 32.8105 78.246 32.8469 78.3747 32.8469C78.4728 32.8469 78.5535 32.8261 78.6169 32.7844C78.6802 32.7428 78.7354 32.6896 78.7824 32.625L78.9939 32.8594C78.9285 32.9511 78.8386 33.025 78.7241 33.0813C78.6118 33.1355 78.482 33.1625 78.3349 33.1625ZM77.9824 32.1657H78.6475V32.1344C78.6475 32.0573 78.6353 31.9907 78.6107 31.9344C78.5862 31.8782 78.5505 31.8344 78.5035 31.8032C78.4565 31.7698 78.3982 31.7532 78.3288 31.7532C78.2593 31.7532 78.198 31.7698 78.1449 31.8032C78.0938 31.8344 78.0539 31.8792 78.0253 31.9375C77.9967 31.9959 77.9824 32.0636 77.9824 32.1407V32.1657Z" fill="#333333"/>
<path opacity="0.8" d="M76.878 33.125V31.4937H77.2641V33.125H76.878ZM77.071 31.25C76.9934 31.25 76.9362 31.2312 76.8994 31.1937C76.8626 31.1562 76.8442 31.1093 76.8442 31.0531V30.9937C76.8442 30.9354 76.8626 30.8875 76.8994 30.85C76.9362 30.8125 76.9934 30.7937 77.071 30.7937C77.1507 30.7937 77.2079 30.8125 77.2427 30.85C77.2795 30.8875 77.2979 30.9354 77.2979 30.9937V31.0531C77.2979 31.1093 77.2795 31.1562 77.2427 31.1937C77.2079 31.2312 77.1507 31.25 77.071 31.25Z" fill="#333333"/>
<path opacity="0.8" d="M75.8452 33.7874C75.5776 33.7874 75.3865 33.753 75.2721 33.6842C75.1597 33.6176 75.1035 33.5228 75.1035 33.3999C75.1035 33.3103 75.128 33.2394 75.1771 33.1874C75.2282 33.1374 75.2987 33.104 75.3886 33.0874V33.053C75.3232 33.0363 75.2731 33.004 75.2384 32.9561C75.2036 32.9082 75.1863 32.8519 75.1863 32.7874C75.1863 32.704 75.2149 32.6394 75.2721 32.5936C75.3313 32.5478 75.3998 32.5165 75.4774 32.4999V32.4874C75.3814 32.4415 75.3089 32.378 75.2598 32.2967C75.2108 32.2134 75.1863 32.1176 75.1863 32.0092C75.1863 31.8988 75.2108 31.8019 75.2598 31.7186C75.3109 31.6353 75.3855 31.5707 75.4836 31.5249C75.5816 31.479 75.7012 31.4561 75.8422 31.4561C75.8953 31.4561 75.9454 31.4603 75.9924 31.4686C76.0414 31.4749 76.0853 31.4842 76.1241 31.4967V31.4467C76.1241 31.3696 76.1436 31.3113 76.1824 31.2717C76.2212 31.2301 76.2764 31.2092 76.3479 31.2092H76.5961V31.5124H76.259V31.5592C76.3407 31.6071 76.402 31.6696 76.4429 31.7467C76.4838 31.8238 76.5042 31.9113 76.5042 32.0092C76.5042 32.1176 76.4787 32.2134 76.4276 32.2967C76.3785 32.3801 76.305 32.4446 76.2069 32.4905C76.1088 32.5363 75.9883 32.5592 75.8452 32.5592C75.8003 32.5592 75.7574 32.5571 75.7165 32.553C75.6756 32.5467 75.6378 32.5394 75.6031 32.5311C75.5725 32.5457 75.5449 32.5655 75.5203 32.5905C75.4979 32.6134 75.4866 32.6426 75.4866 32.678C75.4866 32.7196 75.504 32.7509 75.5387 32.7717C75.5735 32.7926 75.6256 32.803 75.6951 32.803H76.118C76.3142 32.803 76.4562 32.8436 76.544 32.9249C76.6339 33.004 76.6789 33.1165 76.6789 33.2624C76.6789 33.3769 76.6513 33.4728 76.5961 33.5499C76.541 33.629 76.4521 33.6884 76.3295 33.728C76.2089 33.7676 76.0475 33.7874 75.8452 33.7874ZM75.7533 33.5155H75.9494C76.0782 33.5155 76.1722 33.4978 76.2314 33.4624C76.2907 33.429 76.3203 33.379 76.3203 33.3124C76.3203 33.2582 76.2988 33.2165 76.2559 33.1874C76.2151 33.1582 76.1446 33.1436 76.0445 33.1436H75.502C75.4713 33.1644 75.4488 33.1894 75.4345 33.2186C75.4202 33.2478 75.4131 33.279 75.4131 33.3124C75.4131 33.3749 75.4386 33.4238 75.4897 33.4592C75.5408 33.4967 75.6286 33.5155 75.7533 33.5155ZM75.8452 32.2905C75.9392 32.2905 76.0107 32.2686 76.0598 32.2249C76.1109 32.1811 76.1364 32.1176 76.1364 32.0342V31.9811C76.1364 31.8978 76.1109 31.8353 76.0598 31.7936C76.0107 31.7499 75.9392 31.728 75.8452 31.728C75.7512 31.728 75.6787 31.7499 75.6276 31.7936C75.5786 31.8353 75.5541 31.8978 75.5541 31.9811V32.0342C75.5541 32.1176 75.5786 32.1811 75.6276 32.2249C75.6787 32.2686 75.7512 32.2905 75.8452 32.2905Z" fill="#333333"/>
<path opacity="0.8" d="M74.1793 33.1625C74.0281 33.1625 73.8974 33.1282 73.787 33.0594C73.6767 32.9886 73.5909 32.8896 73.5296 32.7625C73.4703 32.6334 73.4407 32.4823 73.4407 32.3094C73.4407 32.1344 73.4703 31.9834 73.5296 31.8563C73.5909 31.7292 73.6767 31.6313 73.787 31.5625C73.8974 31.4917 74.0281 31.4563 74.1793 31.4563C74.3326 31.4563 74.4644 31.4917 74.5747 31.5625C74.685 31.6313 74.7698 31.7292 74.8291 31.8563C74.8904 31.9834 74.921 32.1344 74.921 32.3094C74.921 32.4823 74.8904 32.6334 74.8291 32.7625C74.7698 32.8896 74.685 32.9886 74.5747 33.0594C74.4644 33.1282 74.3326 33.1625 74.1793 33.1625ZM74.1793 32.8438C74.2835 32.8438 74.3663 32.8115 74.4276 32.7469C74.4889 32.6803 74.5195 32.5844 74.5195 32.4594V32.1594C74.5195 32.0323 74.4889 31.9365 74.4276 31.8719C74.3663 31.8073 74.2835 31.775 74.1793 31.775C74.0772 31.775 73.9954 31.8073 73.9341 31.8719C73.8728 31.9365 73.8422 32.0323 73.8422 32.1594V32.4594C73.8422 32.5844 73.8728 32.6803 73.9341 32.7469C73.9954 32.8115 74.0772 32.8438 74.1793 32.8438Z" fill="#333333"/>
<path opacity="0.8" d="M73.067 33.125C72.9342 33.125 72.8361 33.0917 72.7727 33.025C72.7094 32.9563 72.6777 32.8604 72.6777 32.7375V30.8125H73.0639V32.8125H73.2754V33.125H73.067Z" fill="#333333"/>
<path opacity="0.8" d="M71.6158 33.1625C71.4646 33.1625 71.3339 33.1282 71.2235 33.0594C71.1132 32.9886 71.0274 32.8896 70.9661 32.7625C70.9068 32.6334 70.8772 32.4823 70.8772 32.3094C70.8772 32.1344 70.9068 31.9834 70.9661 31.8563C71.0274 31.7292 71.1132 31.6313 71.2235 31.5625C71.3339 31.4917 71.4646 31.4563 71.6158 31.4563C71.7691 31.4563 71.9009 31.4917 72.0112 31.5625C72.1216 31.6313 72.2064 31.7292 72.2656 31.8563C72.3269 31.9834 72.3576 32.1344 72.3576 32.3094C72.3576 32.4823 72.3269 32.6334 72.2656 32.7625C72.2064 32.8896 72.1216 32.9886 72.0112 33.0594C71.9009 33.1282 71.7691 33.1625 71.6158 33.1625ZM71.6158 32.8438C71.7201 32.8438 71.8028 32.8115 71.8641 32.7469C71.9254 32.6803 71.9561 32.5844 71.9561 32.4594V32.1594C71.9561 32.0323 71.9254 31.9365 71.8641 31.8719C71.8028 31.8073 71.7201 31.775 71.6158 31.775C71.5137 31.775 71.432 31.8073 71.3707 31.8719C71.3094 31.9365 71.2787 32.0323 71.2787 32.1594V32.4594C71.2787 32.5844 71.3094 32.6803 71.3707 32.7469C71.432 32.8115 71.5137 32.8438 71.6158 32.8438Z" fill="#333333"/>
<path opacity="0.8" d="M69.2131 33.125V31.4938H69.5993V31.7657H69.6146C69.6473 31.6782 69.6984 31.6053 69.7679 31.5469C69.8394 31.4865 69.9375 31.4563 70.0621 31.4563C70.2256 31.4563 70.3513 31.5125 70.4391 31.625C70.529 31.7355 70.574 31.8917 70.574 32.0938V33.125H70.1909V32.1344C70.1909 32.0178 70.1694 31.9303 70.1265 31.8719C70.0856 31.8115 70.0172 31.7813 69.9211 31.7813C69.866 31.7813 69.8139 31.7907 69.7648 31.8094C69.7158 31.8282 69.6759 31.8573 69.6453 31.8969C69.6146 31.9365 69.5993 31.9855 69.5993 32.0438V33.125H69.2131Z" fill="#333333"/>
<path opacity="0.8" d="M67.4448 33.125V30.8125H67.831V31.7656H67.8463C67.879 31.6781 67.9301 31.6052 67.9996 31.5469C68.0711 31.4865 68.1692 31.4562 68.2938 31.4562C68.4573 31.4562 68.5829 31.5125 68.6708 31.625C68.7607 31.7354 68.8057 31.8917 68.8057 32.0937V33.125H68.4225V32.1344C68.4225 32.0177 68.4011 31.9302 68.3582 31.8719C68.3173 31.8115 68.2489 31.7812 68.1528 31.7812C68.0977 31.7812 68.0456 31.7906 67.9965 31.8094C67.9475 31.8281 67.9076 31.8573 67.877 31.8969C67.8463 31.9365 67.831 31.9854 67.831 32.0437V33.125H67.4448Z" fill="#333333"/>
<path opacity="0.8" d="M66.5386 33.1625C66.3036 33.1625 66.1217 33.0855 65.993 32.9313C65.8663 32.7771 65.803 32.5698 65.803 32.3094C65.803 32.0469 65.8663 31.8396 65.993 31.6875C66.1217 31.5334 66.3036 31.4563 66.5386 31.4563C66.7 31.4563 66.8328 31.4938 66.937 31.5688C67.0412 31.6417 67.1168 31.7417 67.1638 31.8688L66.8512 32.0125C66.8308 31.9417 66.794 31.8844 66.7409 31.8407C66.6898 31.7969 66.6223 31.775 66.5386 31.775C66.4282 31.775 66.3445 31.8105 66.2872 31.8813C66.2321 31.9521 66.2045 32.0459 66.2045 32.1625V32.4594C66.2045 32.574 66.2321 32.6667 66.2872 32.7375C66.3445 32.8084 66.4282 32.8438 66.5386 32.8438C66.6305 32.8438 66.7031 32.8198 66.7562 32.7719C66.8093 32.724 66.8512 32.6625 66.8818 32.5875L67.1761 32.7344C67.1229 32.8761 67.0422 32.9834 66.9339 33.0563C66.8256 33.1271 66.6939 33.1625 66.5386 33.1625Z" fill="#333333"/>
<path opacity="0.8" d="M64.8754 33.1625C64.7181 33.1625 64.5832 33.1282 64.4708 33.0594C64.3585 32.9886 64.2726 32.8896 64.2134 32.7625C64.1541 32.6334 64.1245 32.4823 64.1245 32.3094C64.1245 32.1365 64.1531 31.9865 64.2103 31.8594C64.2696 31.7323 64.3544 31.6334 64.4647 31.5625C64.5751 31.4917 64.7079 31.4563 64.8632 31.4563C65.0287 31.4563 65.1645 31.4938 65.2708 31.5688C65.3791 31.6438 65.4588 31.7438 65.5099 31.8688C65.563 31.9917 65.5896 32.1282 65.5896 32.2782V32.4094H64.523V32.45C64.523 32.5688 64.5556 32.6646 64.621 32.7375C64.6885 32.8105 64.7865 32.8469 64.9153 32.8469C65.0133 32.8469 65.0941 32.8261 65.1574 32.7844C65.2207 32.7428 65.2759 32.6896 65.3229 32.625L65.5344 32.8594C65.469 32.9511 65.3791 33.025 65.2647 33.0813C65.1523 33.1355 65.0225 33.1625 64.8754 33.1625ZM64.523 32.1657H65.188V32.1344C65.188 32.0573 65.1758 31.9907 65.1513 31.9344C65.1267 31.8782 65.091 31.8344 65.044 31.8032C64.997 31.7698 64.9388 31.7532 64.8693 31.7532C64.7998 31.7532 64.7385 31.7698 64.6854 31.8032C64.6343 31.8344 64.5945 31.8792 64.5659 31.9375C64.5373 31.9959 64.523 32.0636 64.523 32.1407V32.1657Z" fill="#333333"/>
<path opacity="0.8" d="M63.1447 33.1249V31.303H62.5317V30.9436H64.1562V31.303H63.5432V33.1249H63.1447Z" fill="#333333"/>
<path opacity="0.8" d="M60.2202 33.125V31.4938H60.6064V31.7657H60.6217C60.6544 31.6782 60.7055 31.6053 60.775 31.5469C60.8465 31.4865 60.9446 31.4563 61.0692 31.4563C61.2327 31.4563 61.3583 31.5125 61.4462 31.625C61.5361 31.7355 61.5811 31.8917 61.5811 32.0938V33.125H61.1979V32.1344C61.1979 32.0178 61.1765 31.9303 61.1336 31.8719C61.0927 31.8115 61.0243 31.7813 60.9282 31.7813C60.873 31.7813 60.8209 31.7907 60.7719 31.8094C60.7229 31.8282 60.683 31.8573 60.6524 31.8969C60.6217 31.9365 60.6064 31.9855 60.6064 32.0438V33.125H60.2202Z" fill="#333333"/>
<path opacity="0.8" d="M58.9432 33.1625C58.7798 33.1625 58.6531 33.1188 58.5632 33.0313C58.4753 32.9417 58.4314 32.825 58.4314 32.6813C58.4314 32.5688 58.458 32.4761 58.5111 32.4032C58.5663 32.3303 58.6449 32.275 58.7471 32.2375C58.8493 32.2 58.9729 32.1813 59.1179 32.1813H59.3907V32.0594C59.3907 31.9698 59.3662 31.899 59.3172 31.8469C59.2702 31.7948 59.1935 31.7688 59.0873 31.7688C58.9974 31.7688 58.9238 31.7896 58.8666 31.8313C58.8094 31.873 58.7614 31.9219 58.7226 31.9782L58.4958 31.7688C58.553 31.675 58.6306 31.6 58.7287 31.5438C58.8268 31.4855 58.9555 31.4563 59.1149 31.4563C59.3294 31.4563 59.4929 31.5073 59.6053 31.6094C59.7177 31.7094 59.7738 31.8521 59.7738 32.0375V32.8125H59.9363V33.125H59.7217C59.6421 33.125 59.5777 33.1032 59.5286 33.0594C59.4817 33.0136 59.45 32.9532 59.4336 32.8782L59.4275 32.8469H59.4091C59.3826 32.949 59.3274 33.0271 59.2436 33.0813C59.1619 33.1355 59.0618 33.1625 58.9432 33.1625ZM59.0689 32.8782C59.1302 32.8782 59.1844 32.8688 59.2313 32.85C59.2804 32.8313 59.3192 32.8042 59.3478 32.7688C59.3764 32.7334 59.3907 32.6896 59.3907 32.6375V32.4188H59.1363C59.0301 32.4188 58.9514 32.4365 58.9003 32.4719C58.8493 32.5073 58.8237 32.5584 58.8237 32.625V32.6782C58.8237 32.7428 58.8452 32.7928 58.8881 32.8282C58.931 32.8615 58.9913 32.8782 59.0689 32.8782Z" fill="#333333"/>
<path opacity="0.8" d="M57.2799 33.1625C57.1471 33.1625 57.0337 33.1292 56.9397 33.0625C56.8457 32.9958 56.7742 32.899 56.7252 32.7719C56.6761 32.6427 56.6516 32.4885 56.6516 32.3094C56.6516 32.1281 56.6761 31.974 56.7252 31.8469C56.7742 31.7198 56.8457 31.6229 56.9397 31.5562C57.0337 31.4896 57.1471 31.4562 57.2799 31.4562C57.3862 31.4562 57.4791 31.4844 57.5588 31.5406C57.6385 31.5948 57.6927 31.6698 57.7213 31.7656H57.7366V30.8125H58.1197V33.125H57.7366V32.8531H57.7213C57.6906 32.9469 57.6355 33.0219 57.5558 33.0781C57.4781 33.1344 57.3862 33.1625 57.2799 33.1625ZM57.4025 32.8375C57.4659 32.8375 57.5221 32.8271 57.5711 32.8062C57.6222 32.7854 57.662 32.7552 57.6906 32.7156C57.7213 32.674 57.7366 32.625 57.7366 32.5688V32.0437C57.7366 31.9917 57.7213 31.9458 57.6906 31.9062C57.662 31.8667 57.6222 31.8365 57.5711 31.8156C57.5221 31.7927 57.4659 31.7812 57.4025 31.7812C57.3004 31.7812 57.2166 31.8167 57.1512 31.8875C57.0879 31.9583 57.0562 32.0521 57.0562 32.1687V32.45C57.0562 32.5667 57.0879 32.6604 57.1512 32.7312C57.2166 32.8021 57.3004 32.8375 57.4025 32.8375Z" fill="#333333"/>
<path opacity="0.8" d="M55.9302 33.125V31.4937H56.3164V33.125H55.9302ZM56.1233 31.25C56.0456 31.25 55.9884 31.2312 55.9517 31.1937C55.9149 31.1562 55.8965 31.1093 55.8965 31.0531V30.9937C55.8965 30.9354 55.9149 30.8875 55.9517 30.85C55.9884 30.8125 56.0456 30.7937 56.1233 30.7937C56.203 30.7937 56.2602 30.8125 56.2949 30.85C56.3317 30.8875 56.3501 30.9354 56.3501 30.9937V31.0531C56.3501 31.1093 56.3317 31.1562 56.2949 31.1937C56.2602 31.2312 56.203 31.25 56.1233 31.25Z" fill="#333333"/>
<path opacity="0.8" d="M55.3138 33.125C55.183 33.125 55.0829 33.0896 55.0134 33.0188C54.944 32.948 54.9092 32.848 54.9092 32.7188V31.8063H54.6702V31.4938H54.7958C54.853 31.4938 54.8919 31.4803 54.9123 31.4532C54.9348 31.4261 54.946 31.3844 54.946 31.3282V31.05H55.2924V31.4938H55.6203V31.8063H55.2924V32.8125H55.5958V33.125H55.3138Z" fill="#333333"/>
<path opacity="0.8" d="M52.6772 33.1249L53.3975 30.9436H53.891L54.602 33.1249H54.1913L54.0166 32.5655H53.2535L53.0788 33.1249H52.6772ZM53.3454 32.2186H53.9185L53.6396 31.3124H53.6243L53.3454 32.2186Z" fill="#333333"/>
<path opacity="0.8" d="M50.5906 33.7499V33.4374H50.8757L50.9523 33.203L50.3792 31.4937H50.7592L51.0442 32.3687L51.1454 32.7749H51.1638L51.2711 32.3687L51.5561 31.4937H51.9208L51.2711 33.4187C51.2465 33.4957 51.2149 33.5582 51.176 33.6062C51.1393 33.6562 51.0923 33.6926 51.035 33.7155C50.9778 33.7384 50.9063 33.7499 50.8205 33.7499H50.5906Z" fill="#333333"/>
<path opacity="0.8" d="M49.638 33.1625C49.5318 33.1625 49.4388 33.1344 49.3591 33.0781C49.2794 33.0219 49.2243 32.9469 49.1936 32.8531H49.1813V33.125H48.7952V30.8125H49.1813V31.7656H49.1936C49.2222 31.6698 49.2764 31.5948 49.3561 31.5406C49.4378 31.4844 49.5318 31.4562 49.638 31.4562C49.7729 31.4562 49.8863 31.4896 49.9782 31.5562C50.0722 31.6229 50.1427 31.7198 50.1897 31.8469C50.2388 31.974 50.2633 32.1281 50.2633 32.3094C50.2633 32.4885 50.2388 32.6427 50.1897 32.7719C50.1427 32.899 50.0722 32.9958 49.9782 33.0625C49.8863 33.1292 49.7729 33.1625 49.638 33.1625ZM49.5154 32.8375C49.6176 32.8375 49.7003 32.8021 49.7637 32.7312C49.8291 32.6604 49.8618 32.5667 49.8618 32.45V32.1687C49.8618 32.0521 49.8291 31.9583 49.7637 31.8875C49.7003 31.8167 49.6176 31.7812 49.5154 31.7812C49.4521 31.7812 49.3949 31.7927 49.3438 31.8156C49.2927 31.8365 49.2529 31.8667 49.2243 31.9062C49.1957 31.9458 49.1813 31.9917 49.1813 32.0437V32.5688C49.1813 32.625 49.1957 32.674 49.2243 32.7156C49.2529 32.7552 49.2927 32.7854 49.3438 32.8062C49.3949 32.8271 49.4521 32.8375 49.5154 32.8375Z" fill="#333333"/>
</svg>
